<?xml version="1.0" encoding="UTF-8"?>
<svg id="Calque_1" data-name="Calque 1" xmlns="http://www.w3.org/2000/svg" viewBox="0 0 400 400">
  <defs>
    <style>
      .cls-1 {
        fill: #fff;
      }

      .cls-2 {
        fill: #503f5a;
      }
    </style>
  </defs>
  <path class="cls-1" d="M63.9,198.51c-3.02,0-5.48,2.46-5.48,5.48s2.51,5.59,5.48,5.59,5.59-2.56,5.59-5.59-2.56-5.48-5.59-5.48"/>
  <path class="cls-1" d="M131.68,260.16l-16.49-18.36,20.6-20.7-5.74-5.74-28.93,28.93v-49.62h-8.08v76.91h8.08v-15.7l8.23-8.23,16.32,17.98c3.42,3.77,6.31,5.95,10.9,5.95h8.05v-8.19h-8.05c-1.58,0-2.68-.72-4.89-3.22"/>
  <path class="cls-1" d="M199.97,244.6c0,10.88-8.42,19.74-18.78,19.74s-18.77-8.85-18.77-19.74,8.42-19.85,18.77-19.85,18.78,8.9,18.78,19.85M181.19,216.68c-14.87,0-26.96,12.53-26.96,27.93s12.1,27.93,26.96,27.93,26.96-12.53,26.96-27.93-12.1-27.93-26.96-27.93"/>
  <path class="cls-1" d="M341.67,244.6c0,10.88-8.42,19.74-18.78,19.74s-18.78-8.85-18.78-19.74,8.42-19.85,18.78-19.85,18.78,8.9,18.78,19.85M322.9,216.68c-14.87,0-26.96,12.53-26.96,27.93s12.1,27.93,26.96,27.93,26.97-12.53,26.97-27.93-12.1-27.93-26.97-27.93"/>
  <path class="cls-1" d="M58.27,217.64h-8.13v8.08h7.77c1.11,0,2.01.9,2.01,2.01v43.84h8.08v-44.2c0-5.36-4.36-9.73-9.73-9.73"/>
  <path class="cls-1" d="M277.62,261.49v-25.44c0-11.77-8.32-19.38-21.19-19.38-8.17,0-15.79,3.83-21.11,10.56l-.29-9.6h-7.48v53.93h8.08v-24.08c0-12.53,9.33-22.73,20.81-22.73,8.27,0,13.01,4.12,13.01,11.3v25.78c0,5.37,4.36,9.73,9.73,9.73h8.82v-8.08h-8.36c-1.1,0-1.99-.89-1.99-1.99"/>
  <polygon class="cls-1" points="216.77 302.81 232.5 302.81 232.5 306.81 226.83 306.81 226.83 324.2 222.46 324.2 222.46 306.81 216.77 306.81 216.77 302.81"/>
  <path class="cls-1" d="M197.71,311.93c1.87-.15,3.41-1.09,3.41-2.57,0-1.56-.62-2.29-2.42-2.52-1.3-.18-2.76-.23-4.27-.23v5.46c1.09,0,2.21-.03,3.28-.13M198.49,302.81c4.97.08,7.12,3.3,7.12,6.47,0,2.91-2.18,4.89-4.63,5.8,1.82,1.77,5.15,7.44,6.14,9.15h-4.89c-1.01-1.53-3.04-5.9-6.11-8.4-.6,0-1.2.03-1.69.03v8.35h-4.37v-21.37l8.42-.03h.01Z"/>
  <path class="cls-1" d="M168.46,309.31l-2.68,6.55h5.38l-2.7-6.55h0ZM179.25,324.2h-4.71l-1.74-4.34h-8.66l-1.72,4.34h-4.73l8.97-21.4h3.61l8.97,21.4h.01Z"/>
  <polygon class="cls-1" points="173.74 75.77 312.81 90.6 277.2 187.26 94.86 152.24 173.74 75.77"/>
  <path class="cls-2" d="M302.13,97.64c2.73-1.26,3.81-.42,6.37,1.37-1.05.5-2.54.13-3.26,1.3-1.78-.52-1.38-2.12-3.11-2.67M292.24,101.9c-1.02-1.09-.22-3.08-.93-4.34-.59,2.27-2.18,2.47-3.28,3.71.97,1.32.55,3.32,1.64,4.58.38-2.29,1.9-2.24,2.56-3.95M266.9,94.84c.26-1.08-1.65-2.22-1.89-3.86-.57,1.9-1.94,2.15-3.03,2.98,2.53,2.36.8,8.14-2.95,7.43,2.19.22,1.2,2.01,2.74,2.55,1.08-.44,2.34-.54,3.02-1.78-1.41-.31-1.38-1.32-1.67-2.18-.44-3.52,3.5-3.99,3.77-5.14M296.3,105.3c.86-.68,2.26-.28,2.9-1.42-1.83-.3-.76-2.02-2.87-2.18-.3,1.83-2.42-.04-2.9,1.42,1.53-.22,1.99,1.26,2.87,2.19M268.38,107.01c.55-2.14,2.66-1.09,3.39-2.86-3.25-1.96-1.31-6.83,1.74-7.44-1.55-.54-.71-2.24-2.26-2.78-.75,1.33-2.45.72-3.38,1.66,2.95,1.55,1.06,6.95-1.5,7.93,1.25.88,1.15,2.43,2.01,3.5M211.93,79.84c.33,1.08-.06,2.93.33,2.83.36-1.91,1.62-2.01,2.68-2.51l-3.02-.32h.01ZM225.42,81.28c-.36.32-.73.63-1,1.12.65.88.39,2.21.94,3.14.44-1.54,1.88-1.04,2.43-2.39-.38-.49-.54-1.12-.75-1.71l-1.61-.16h0ZM216.72,80.34c.55,1.17,1.73,2.04,2.51,3.1.88-1.05,2.37-.86,3.38-1.66-.28-.34-.55-.65-.8-.9l-5.1-.54h.01ZM231.97,86.18c.97-.04,1.44-1.12,2.88-.22-.07-1.87-3.54-3.48-4.68-1.6,1.34.24.45,1.58,1.8,1.82M284.13,107.97c-1.57-1.22-.55-3.72-1.4-5.3-.92,2.21-2.48,3.1-3.65,4.78,1.58.73.75,2.62,2.02,3.5.54-1.96,2.19-1.66,3.03-2.98M278.25,106.36c-1.41-3.21-3.3-3.35-6.25-1.73,1.19,1.02,1.79,2.32,2.86,3.39.97-.87,2.23-1.15,3.39-1.66M229.01,94.82c1.22-.36,2.24-1.14,3.14-2.14-1.39-.72-.61-2.5-1.66-3.38-.33,1.16-.73,2.18-1.58,2.27-.4,1.29.88,1.76.1,3.25M247.03,97.7c1.18.72,1.33,1.94,2.26,2.78.21-1.82,2.01-.38,2.3-2.03-1.1-.35-1.14-1.24-1.79-1.82-.6,1.02-2.18.04-2.78,1.06M236.46,95.36c.77-.25,1.67-.26,2.05-1.31-.66-2.01-2.89-2.02-3.97-.15,1.19.21.44,1.38,1.91,1.46M290.86,124c-.78.24-1.67.23-2.08,1.27.63,2.03,2.86,2.07,3.97.21-1.19-.23-.41-1.39-1.89-1.49M177.21,76.14l-.64.68c.2-.18.47-.41.76-.66l-.13-.02h.01ZM206.77,92.85c1.05,1.49.43,3.78,1.4,5.3.43-2.59,1.85-3.15,3.28-3.7-3.16-1.92-.84-6.93,2.11-7.32-1.73-1.98-3.75-2.35-6.01-1.25,4.43.45,2.14,7.13-.78,6.97M288.15,117.38c-.59-1.7-.53-3.73-.92-5.54.14,2.44-1.76,2.94-3.04,4.19.45,1.09.54,2.33,1.78,3.02,1.78-1.57,1.61-1.58.39-3.49,1.34.24.45,1.58,1.79,1.82M184.72,80.89c.99-.63,2.34-.54,3.26-1.3-1.9-.36-1.34-1.94-2.75-2.54-.77,1.48-2.98.03-3.98,1.05,1.84.6,2.83,1.61,3.47,2.8M196.26,82.42c.25.18.31.45.11.84,1.23,1.24,4.18.84,4.09-.21-1.35.12-2.58-2.82-4.2-.64M299.2,127.41c-1.22-.73-3.01-.74-3.14.06.92.14,1.44,1.66,2.34,2.05l.79-2.11h.01ZM301.11,121.03c-.93-.68-2.68-1.38-3.84-1.42,1.07.56,1.38,2.05,3.84,1.42M172.41,77.16c.91-.18,1.58-.84,2.36-1.29l-.92-.1-1.44,1.39ZM273,115.83c1.8-3.7,4.34-1.64,6.25.53,2.82-.32,3.35-2.31,1-4.08-2.56,2.53-6.76-.42-5.99-3.65-.66,1.91-2.07,2.3-2.92,3.83.9.96.29,2.65,1.66,3.38M292.97,116.22c-.71,1.21-2.45.31-3.03,1.78,1.47.28.88,1.57,1.67,2.18,1.6.2,2.44-1.14,3.98-1.05-1.47-.68-1.31-2.16-2.62-2.91M182.24,90.49c.82-5.02,5.33-2.95,7.46-.66.8-.19,1.54-.53,2.29-.82-1.09-.57-1.12-1.65-2.51-2.06-3.68,1.86-5.83-2.29-5.5-5.1-.32,2.81-1.98,2.89-3.04,4.18,1.54.94.41,3.19,1.29,4.46M167.05,82.37c1.56.76,2.62,2.25,2.47,4.17.44-2.37,2.36-1.71,2.92-3.83-1.19-1.08-.9-2.87-1.27-4.36l-.06.06c-.4,1.83-1.41,2.48-2.57,2.49l-1.49,1.46h0ZM195.09,94.08c.9-1.22,1.51-3.02,2.79-3.47-1.09-.86-.83-2.39-1.17-3.62-2.71,2.66-2,3.55-1.62,7.09M231.85,100.62c-2.8-2.02-3.76-3.28-6.96-1.98,1.03,1.09,3.05,1.7,1.9,3.86.67.25.86-.02.61-.6.79-2.22,3.77-.53,4.46-1.28M202.94,89.93c-.81,1.4-2.82.36-3.74,1.54,2.42.21,1.6,2.01,3.11,2.67.77-1.08,2.29-.6,3.02-1.78-1.95-.24-1.45-1.68-2.38-2.43M174.94,85.98c1.43.06,2.46-.68,3.62-1.18-.96-2.24-4.06-1.94-6.01-1.25,1.81.32,1.66,1.58,2.39,2.43M248.48,113.14c-1.54-2.31-3.46-3.77-5.65-1.13,1.52,3.24,2.76,1.98,5.65,1.13M254.6,115.23c1.64.39,2.4,1.22,2.87,2.19,1.34.28,2.02-.77,3.14-.94-1.36-2.22-4-2.29-6.01-1.25M177.3,92.02c-1.98-.83-1.17-3.02-2.13-4.35-.23,2.59-1.89,2.26-2.56,3.95,1.17.83.29,2.66,1.17,3.62.46-2.53,2.46-1.91,3.51-3.22M160.34,88.87c.25.61.47,1.22.97,1.71.21-1.81,1.85-.71,2.06-2.52-.46-.4-.51-1.01-.51-1.63,0,0-2.52,2.44-2.52,2.44ZM167.8,91.58c.99-.44,2.13-.54,3.14-.94-1.22-.7-1.56-1.83-2.26-2.78-1.09.62-2.45.72-3.62,1.17,1.44.59,1.48,1.88,2.75,2.55M161.51,95.86c.23-2.53-3.3-3.46-4.68-1.6,1.14,1.93,2.66,1.95,4.68,1.6M294.35,140.61c-.95-1.09-3.05-.85-4.23.37,1.45,1.2,2.05,2.26,3.3,2.11l.93-2.48h0ZM159.65,102.46c-.45-1.08-.67-2.27-1.3-3.26-.84.93-1.76,1.72-2.55,2.75,1.44.79-.09,3.03,1.05,3.97.23-2.59,2.01-2.02,2.8-3.47M148.73,100.13c.42.76,1.15,1.37,1.79,2.03.83-.53,1.98-.43,2.54-1.54-.24-2.16-1.56-1.92-3.06-1.71l-1.26,1.23h0ZM148.27,111.04c.78-1.48,1.68-2.68,2.8-3.47-.88-.77-.47-2.16-1.42-2.9-.68,1.27-2.16.9-2.78,2.26,1.69.77.71,2.84,1.41,4.1M152.99,107.82c-.14,1.27.74,2.03,1.42,2.9,1.79.18,3.14-.52,4.7-.81-2.53-1.85-3.07-3.12-6.12-2.09M141.51,107.12c.12.06.26.1.42.14.96-.47,2.19-.42,2.9-1.42-.12-.51-.37-.94-.68-1.27l-2.63,2.55h0ZM151.37,116.11c.83,1.29.61,3.1,1.29,4.46,1.83-2.58,3.44-4.91,1.74-7.44-.88,1.25-2.25,1.52-3.03,2.98M146.79,116.56c1.07-.87,2.83-.34,3.74-1.53-2.64-2.28-3.05-2.61-6.24-1.73.02,1.49,1.3,2.36,2.5,3.27M151.17,126.1c1.13-.35,2.05-1.13,3.02-1.78-1.82-.41-1.2-2.01-2.27-2.78-4.1,2.15-4.71.14-6.59-3.06-.38,1.87-1.73,1.78-2.55,2.74.93.95,1.18,2.22.69,3.86,2.6-2.43,5.54-2.35,7.69,1.03M163.53,129.92c.84-1.35,2.55-.91,3.5-2.02-2.01-.41-.96-2.32-2.62-2.91-.79,1.66-3.03.34-3.87,1.9,2.2.41,1.83,2.1,2.98,3.03M130.06,118.21c.53,1.13.36,2.59.8,3.76.92-1.78,2.03-3.2,3.87-3.1,1.19,1.02,1.8,2.32,2.86,3.39,1-.83,2.43-.76,3.15-2.14-1.1-.56-.8-1.8-2.02-2.3-1.18.66-2.76.49-4.22.56-.91-.81-1.11-1.96-1.5-3.02l-2.94,2.85h0ZM198.65,145.95c1.4,1.01.27,3.26,1.29,4.46,1.85-2.33,3.13-6.12,1.62-8.29-.33,2.58-1.99,2.45-2.92,3.83M232.61,157.16c.6-1.42,2.83.48,3.5-.81-2.53.27-1.48-2.02-3.47-2.8-1.42,1.48-2.35.7-3.98,1.05,1.32.62,2.98,1.11,3.95,2.56M151.96,132c-.56-1.43-1.29-2.76-2.25-3.99-.59,1.44-1.87,1.48-2.55,2.75.76,1.22.38,3.01,1.41,4.1.58-2.07,2.32-1.77,3.39-2.86M155.58,130.82c-.46,1.92-2.65.29-3.38,1.66,1.96.54,1.66,2.18,2.98,3.03,1.2-.63,2.6-.81,3.74-1.53-1.83-.7-1.2-2.61-3.34-3.16M215.64,158.59c1.27,1.08.22,3.29.81,4.7,1.37-.68,1.49-3.88,3.28-3.7,6.02,1.08,2.87,6.74.29,8.54,1.58,1.12-.54,4.06.56,5.42.95-1.53,1.56-3.75,2.8-4.67-1.01-1.6.11-4.25.65-6.61.92-.57,2.3-.19,3.37-.46-1.57-.53-2.16-1.54-3.23-2.31-3.94.94-5.93-.41-5.14-4.97-.68,1.92-1.92,2.51-3.4,4.06M225.54,169.62c1.22.6,1.25,1.78,2.39,2.42.64-.95,1.49-1.45,3.01-.58.45-1.42-2.34-1.25-1.9-2.66,1.17-6.16,4.39-5.73,7.36-2.71.79-1.43,3.28.59,4.21-.57-2.59-.22-2.26-1.89-3.95-2.56-2.59,1.77-6.22-.5-5.14-3.76-2.92,2.86-1.72,5.39-3.32,9.71-.81.39-1.89.23-2.66.7M207.96,156.37c1.85.6,2.23,3.49,2.25,3.99.68-2.7,3.12-1.79,4.6-2.85-2.8-1.69-4.34-2.33-6.85-1.13M159.32,144.56c1.7.21,2.53-1.35,4.34-.93.16-1.78-2.12-2.36-3.23-3.52-1.35.72-2.97.86-4.7.81-.83-1.29-.61-3.1-1.29-4.46-.87,1.27-1.54,2.97-3.03,2.98.28,1.56.47,3.16.81,4.7,1.33-.97,2.33-2.59,4.11-2.61.92,1.05,1.27,2.37,2.98,3.03M248.62,171.48c-.33,2.58-2,2.45-2.92,3.83.92,1.25-.02,3.4.81,4.7,1.09-1.24,2.13-2.57,3.28-3.71-1.6-1.02.15-3.67-1.17-4.82M184.64,152.82c-1.03,1.36-1.65,3.54-3.04,4.19.86,1.18.31,3.05.45,4.57,1.18-3.82,5.56-4.41,7.47-.66,1.79-1.47,2.74-.89,5.65-.08.08,1.26.29,2.46.34,3.73,1.96-2.24,3.27-5.24,1.86-7.81-1.16,5.21-5.41,2.77-6.86.07-1.3,0-1.88,1.46-3.26,1.3-4.04-.22-1.68-3.57-2.61-5.31M169.21,157.12l2.23-7.68c-1.14,3.21-3.58,3.96-2.23,7.68M159.07,146.49c-.36-.12-.72-.25-1.08-.37-.21,2.42-2.01,1.6-2.67,3.11.84,1.29.61,3.09,1.29,4.46.67-1.89,2.38-1.67,3.15-3.35-.5-1.15-.92-2.35-.69-3.85M205.62,163.54l-6.01-1.25c1.25.92,4.84,2.17,6.01,1.25M175.83,157.45c1.18-1.26,3.33-.54,4.82-1.17-2.76-2.63-3.9-2.66-7.32-2.1.37,1.32,1.25,2.38,2.5,3.27M148.23,147.61c1.27.67.9,2.15,2.26,2.78,1.18-1.06,2.91-.99,4.23-1.77-2.22-2.01-4.24-3.8-6.49-1.01M110.9,136.79c.45.5.73,1.08,1.55,1.4,1.12-.36,2.33-.55,3.5-.81-1.26-.82-1.15-2.32-2.4-3.15l-2.65,2.56ZM175.58,158.16c-.55,1.94-1.18,3.7-2.56,3.95-.32,1.55,1.29,2.16.21,4.09,1.56-.28,2.2-2.42,3.74-2.74-2.64-1.37-.08-3.49-1.4-5.3M159.46,158.28c1.52,1.26.72,3.64,1.4,5.3.92-1.39,1.9-2.65,2.92-3.82-.91-1.15-.31-3.05-.93-4.34-.67,1.89-2.58,1.25-3.39,2.86M146.85,155.17c1.47,1.08.75,3.23.68,5.06,1.26-1.3,2.06-3.54,3.53-4.42-1.11-1.16-.9-2.96-1.29-4.46-.79,1.63-1.84,2.76-2.92,3.82M178.06,163.84c1.15.63,1.55,1.63,2.87,2.18,1.11-1.07,3.32.67,3.73-.33-1.04-.99-2.54-1.75-3.47-2.79-.52,1.38-2.15.49-3.13.94M151.53,156.77c2.42,2,3.94,2.54,6.36,1.37.3-4.07-4.43-2.77-6.36-1.37M164.86,160.13c.84.98,1.6,2.01,3.11,2.67.99-.64,2.41-.39,3.26-1.3-1.74-2.45-3.93-2.01-6.36-1.37M107.84,143.44c1.73.95.78,3.21,1.65,4.59,1.48-1.69,1.76-2.08,3.27-3.7-1.23-.9-.28-2.86-1.54-3.74-.76,1.71-1.94,2.56-3.39,2.86M126.09,148.88c1.65.69,1.16,2.43,2.98,3.03,1.36.14,1.6-2.04,3.49-.81-.51-3.77-3.86-4.07-6.48-2.22M117.19,147.84c.42-1.18,1.83-.33,2.18-1.66-.86-2.82-3.94-2.4-5.76-.77,1.05.89,1.57,2.03,3.59,2.43M142.34,161.24c-.49-1.15-.55-2.49-.19-4.05-.36-.12-.72-.25-1.08-.37-.76,1.82-2.27,2.09-3.2,3.57M114.85,155.95c4.31-4.35,3.71,4.14,8.41,0-.11-.95-.99-1.51-1.18-2.42-1.97-.96-2.24,1.54-4.21.57-1.83-1.4-1.89-3.67-2.49-5.67-1.65,2.47-2.92,4.8-2.55,7.14l2.02.39h0ZM129.61,158.79c.38-.14.78-.24,1.21-.25.1.17.18.35.27.53l5.72,1.1c.13-.07.26-.16.37-.26-1.5-.86-1.43-2.49-3.34-3.15-3.6,2.84-4.48-.5-5.63-3.53-.66,1.91-2.07,2.3-2.91,3.83.11.32.23.63.33.96l3.98.78h0ZM103.13,145.45c-1.02.97-1.31,3.43-2.79,3.47.44,1.38-.3,3.34.93,4.33.27-2.09,1.86-1.47,2.31-3.23-.85-1.18-.31-3.05-.45-4.58M148.33,162.38c-.39-.46-.83-.89-1.04-1.43-.75.2-1.38.64-2.14.83l3.18.61h0ZM108.28,149.22c-.65,1.72-2.81.38-3.5,2.02,1.06.67,2.22,1.31,2.87,2.19,1.02-.77,2.39-.83,3.62-1.17-1.88-.58-1-2.51-2.99-3.03M299.09,89.13c.53.38.94.82,1.06,1.41,1.73-.14,3.05-1.11,5.53.28-.26,1.62,1.49,2.26.09,4.45,1.61-.39,1.78-3.7,3.4-4.06-.25-.28-.38-.67-.44-1.05l-9.64-1.03h0ZM273.44,86.41c-5.77,3.09-1.92,1.62-1.47,6.55,1.38-4.32,6.39-2.52,6.49,1.01-1.26,1.7-2.6,3.26-4.72,3.21,2.07,1.08,2.5,2.97,2.73,4.95.86-1.9,2.35-2.55,4.11-2.61,1.15.83,1.3,2.15,2.62,2.91,1.01-1.2,2.52-1.36,3.86-1.9-2.2-.22-1.21-2-2.75-2.54-5.31,4.43-8.39-7.8-1.15-6.02,1.03,1.29,1.1,3.05,2.13,4.35.96-1.5,2.3-2.24,3.99-2.26,1.49.67,1.22,2.2,2.62,2.91,1.3-.81,2.4-2.04,4.7-.8,1.29.76.36,2.62,1.66,3.38.31-1.81,1.83-1.16,2.19-2.87-.86-1.08-.11-2.94-.57-4.21-1.1,4.27-5.81,3.4-7.34.3-.82,1.18-2.52.55-3.86.69-.26-1.67-2.41-2.41-1.16-4.82-1.34-.48-1.58,1.24-2.06,2.51-2.3,1.56-4.48-.36-6.12-2.09-2.27.65-3.92-.83-4.78-2.53l-1.12-.11h0ZM265.93,85.6c-.75.47-1.61.75-2.8.32.78,1.42,1.36,2.93,3.58,3.63.45-1.32,1.73-.95,2.54-1.54-3.36-2.77,1.98-1.78-3.31-2.41h-.01ZM230.7,178.21l2.4.46c-.28-.24-.54-.47-.77-.69-.59,0-1.11.12-1.63.23M227.19,174.2c-.73-1.52-.16,2.98-3.19,2.72l3.51.67c-.53-.92-.26-2.23-.31-3.39M219.85,174.5c-3.45,1.76-6.92-1.75-5.5-5.09-1.01,1.39-1.73,3.38-3.28,3.71-5.56-2.75.73-9-1.11-12.04-2.39,2.8-1.46,11.01-7.65,9.45-1.73-1.05.04-3.82-1.04-5.18.45,4.72-5.43,4.21-7.23,1.15-.4.81-1.48.24-1.7,1.43,1.22,2.24,3.62.76,6.12,2.09.31.57.3,1.29.23,2.05l1.46.28c1.56-1.84,4.22-.92,5.61,1.07l1.75.34c.99-.49,3.81-1.12,4.12.8l2.47.47c1.16-.49,2.82-.05,3.43.66l5.27,1.02c-1.14-.41-2.22-1.33-2.98-2.19M239.56,176.83c-.33.96-.66,1.93-.99,2.89l1.41.27c-.1-1.08,1.17-2.82-.42-3.17M252.2,182.34l1.2.23c-.1-.64-.27-1.23-.76-1.67-.08.61-.24,1.08-.44,1.44M277.59,159.68c7.36-1.88.62-10.2-2.25-5.19-1.03,1.8-.76,4.56,2.25,5.19M275.72,167.48c2.58.13,3.57-3.96,2.81-5.87-3.77-2.4-4.71.97-6.52,2.59,2.84-6.05-6.11-8.09-5.77-.77,1.96,2.55,2.88,2.72,6,1.25.12,1.54,2.39,2.02,2.86,3.39-1.99-.8-3.02.36-4.34.93-1.72-6.21-10.21-.79-5.44,4.17-1.26-.12-2.22.35-2.9,1.42-.07,1.73-.43,3.61.32,4.93,5.3,3.15,7.1-6.47,3.06-6.59,2.08.38,3.23-1.13,4.47-2.49.82,4.17,2.08,5.05,5.75,3.17,1.35-2.76.31-4.35-.31-6.14M271.88,182.25c1.55-.83,2.78-3.06,2.93-5.03-3.67-6.11-10.02,4.2-2.93,5.03M257.67,168.55c1.37,2.81,4.72,2.62,5.77.77,2.23-3.95-4.36-7.83-5.77-.77M253.53,159.49c2.17,3.85,7.05,2.01,6.16-2.72-2.1-3.05-5.9-1.88-6.16,2.72M252.38,152.27c2.18-.73,2.44-3.91,1.97-5.76-2.92-1.06-4.44.74-5.32,3.81.6.9,1.71,1.55,3.35,1.95M251.61,159.23c3.39-5.42-3.64-9.18-5.28-2.2.59,2.12,3.24,2.96,5.28,2.2M240.67,157.11c2.19,1.19,3.52.66,4.81.03.88-2.79,1.21-3.48.65-5.4-2.1-1.02-3.32-.24-4.81-.04-.84,2.11-1.2,3.98-.65,5.41M237.85,148.9c1.44-.13,2.8-.4,4.21-.57.57,1.65,2.32,2.09,3.47,2.8,1.25-.92,2.67-1.48,3.52-3.22-.74-2.12-1.85-4.07-4.78-3.64-.91.6-.9,3.06-2.19,2.87.49-1.83-1.07-2.67-.93-4.34-2.19-1.2-3.59-.8-4.81-.04-.48-1.81-2.73-2.89-4.79-2.44-.9,1.01-1.71,2.22-2.2,4.08,1.26,3.02,5.21,2.99,6.73.29-.82,2.1.8,3,1.77,4.22M228.99,144.27c.16-1.98.1-3.85-.56-5.42-7.49-2.81-4.94,10.24.56,5.42M223.37,139.53c.24-2.55-2.93-4.1-5.15-2.57-4.2,7.11,4.68,7.62,5.15,2.57M215.78,140.55c.88-1.01.7-2.81,1.11-4.44-6.13-6.71-9.24,8.49-1.11,4.44M209.18,138.7c.37-1.08.74-2.16,1.11-3.24-4.7-9.51-9.77,6.43-1.11,3.24M203.42,136.73c.75-2.07.68-3.74.16-5.17-1.58-1.24-3.2-.83-5.17-.16-2.84,4.82,1.77,7.39,5.01,5.33M193.68,135.81c1.8.27,3.8-2.29,4.01-4.66-4.7-6.57-9.45,3.84-4.01,4.66M185.28,133.34c4.89,2.64,6.89-2.72,5.22-5.85-3.45-2.43-7.14,2.39-5.22,5.85M181.19,132.34c2.28-.12,3.78-3.82,3.3-6.11-3.49-2.62-4.89-.05-6.76,2.11,2.35-7.41-8.75-5.04-5.18,1.04,2.37,1.37,3.48.16,5.17.16.73,1.14,1.39,2.32,3.47,2.79M179.99,117.06c-4.92-4.11-7.75,4.69-3.53,5.63,2.45.55,4.13-2.75,3.53-5.63M179.28,115.61c6.95.36-.51-13.46-3.11-2.67,1.01,1.29.9,2.56,3.11,2.67M185.59,124.2c2.48-4.56-.56-7.26-4.05-5.81-1.06,2.32-1.02,4.1-.28,5.53,1.86.95,2.87.15,4.33.27M187.86,111.71c-5.04-3.4-7.01,4.94-2.82,5.87,2.7-.15,4.1-3.55,2.82-5.87M180.75,96.01c-1.96,2.62,1.42,7.17,4.78,4.85,3.18-4.74-2.06-7.8-4.78-4.85M190.33,103.3c6.12-3.53-2.26-10.87-3.96-2.56.39,1.31,1.91,2.07,3.96,2.56M197.51,108.17c-1.69-5.46-8.57-.69-5.56,3.32,3.35,1.72,4.72.25,5.56-3.32M198.35,108.06c-.84,2.84-1.1,4.98.8,5.89,5.72,2.77,6.11-10.8-.8-5.89M200.05,120.7c-.27-1.59,1-2.01,1.83-2.99-1.39-2.69-5.55-5.03-6.26.67.72,1.68,2.42,3.64,4.43,2.32M196.2,121.39c-1.44.53-2.19,2.46-2.8,4.67.72,2.15,4.73,3.06,6.01,1.25,3.13,7.89,11.56-3.87,3.04-4.18-.99.83-1.62,2.4-2.67,3.1-.46-1.17-.14-2.73-.69-3.85-.96-.33-1.92-.66-2.88-.99M186.06,109.89c2.8,1.51,7.13-4.37,2.69-5.51-4.22-1.09-5.08,4.23-2.69,5.51M191.28,119.31c3.99.13,6.06-7.57.17-6.38-.67,1.69-2.33,1.36-2.56,3.95.73.84,1.17,1.83,2.39,2.43M192.56,124.97c.56-1.09-1.3-2.39.39-3.48-2.14-2.97-5.62-1.27-6.16,2.72,1.82,2.74,4.37,3.52,5.77.76M207.87,121.36c1.4-2.51-.5-6.12-4.42-4.73-4.23,4.66,2.22,8.67,4.42,4.73M211.45,125c8.54-2.31-2.4-11.2-2.86-3.39-.07,1.29,1.41,2.25,2.86,3.39M213,111.06c-3.58.56-3.1,6.26.07,6.86,3.84.73,5.11-7.66-.07-6.86M221.96,118.95c3.63-3.48-3.11-11.12-5.04-1.72.56,2.55,3.98,2.74,5.04,1.72M219.65,106.9c-1.16,2.57.04,3.97.92,5.54,3.35.7,5.44-3.08,4.02-5.86-2.26-1.15-3.31.18-4.93.32M229.44,117.08c-1.29-6.61-11.83,2.38-2.32,4.43,1.3-1.1,2.72-2.39,2.32-4.43M235.91,119.3c-1.93-5.67-8.51-.44-5.2,3.45,3.56,1.38,4.2-.55,5.2-3.45M242.02,123.79c2.93-10.28-11.15-2.63-4.34.93,1.96,1.03,2.72-.1,4.34-.93M248.17,121.08c-3.91-2.39-6.67,2.11-5.33,5.01,2.08,1.19,3.25.51,4.69.4.87-2.12,1.46-4.11.64-5.41M253.77,128.22c4.14-5.51-5.07-9.04-5.04-1.72,1.21.8,1.46,2.08,3.59,2.43.5-.2.57-1.29,1.45-.71M259.46,124.53c-3.81-.83-4.99,4.81-2.45,6,3.04,1.43,6.05-5.22,2.45-6M263.19,139.48c5.99-2.58-1.57-10.76-3.11-2.67.81,1,.83,2.39,3.11,2.67M265.53,132.64c6.94-3.19-3.83-10.77-3.59-2.44.89.96,1.45,2.09,3.59,2.44M273.58,133.79c3.55-5.64-4.66-7.98-5.4-1.85.52,2.11,3.71,3.37,5.4,1.85M271.33,145.07c-3.98,5.98,8.36,6.91,5.06-.68-2.37-.85-4.3-.45-5.06.68M270.07,152.28c-1.81,2.53-1.04,4.93,1.51,6.15,1.61-.58,2.68-2.28,3.29-4.91-1.03-2.22-2.76-1.46-4.8-1.24M266.44,139.38c1.35,1.15,1.6,1.87,3.71,2.07,6.27-4.64-3.83-10.28-3.71-2.07M264.1,146.22c1.51,3.73,6.12,2.64,6.39-1.03.26-3.55-6.34-3.58-6.39,1.03M268.27,151.67c-3.78-6.5-10.32,4.79-1.96,4.56.92-.98,1.37-2.9,1.96-4.56M258.98,154.12c6.49-4.19-3.88-11.11-2.88-.98.96.33,1.92.66,2.88.98M264.01,142.97c-.94-1.77-3.58-3.66-5.4-1.85-3.29,5.42,4.55,8.02,5.4,1.85M256.23,137.5c1.33-.54,2.38-1.65,3.15-3.34-.55-3.06-4.69-3.84-6.13-.89.17,1.82,1.3,3.16,2.98,4.24M252.49,139.03c-3.77,5.29,4.34,8.28,4.92,2.08-.74-1.82-2.92-3.16-4.92-2.08M249.14,135.88c7.58-.12,1.02-11.22-2.39-2.42,1.02.7,1.05,1.88,2.39,2.42M245.28,137.77c-.3,1.35-.36,2.57-.51,3.85,6.34,6.25,8.21-8.6.51-3.85M242.9,134.15c3.31.77,5.2-5.82.89-6.12-4.36-.32-3.61,5.49-.89,6.12M244.2,137.4c-2.4-6.5-8.83,1.86-4.6,4.05,2.71,1.41,4.19-1.75,4.6-4.05M237.38,132.66c1.22-.95,2.65-1.65,2.79-3.47.6-7.6-12.46.84-2.79,3.47M233.29,132.87c-3.67,3.51.31,8.93,4.16,5.44.34-1.77.54-3.46.04-4.81-1.45-.32-2.94-.7-4.2-.63M231.96,133.22c-2.93-6.01-9.12,1.34-5.32,3.81,2.44,1.59,4.37-.56,5.32-3.81M230.9,130.44c7.61-4.49-3.57-10.64-3.35-1.95,1.48.48,1.3,1.76,3.35,1.95M224.53,129.07c1.41-.79,2.39-2.46,3.16-4.55-2.94-6.77-9.92,2.52-3.16,4.55M224.48,135.09c3.94-7.31-6.9-7.61-5.05-.52.25.18.71.26.6.61,2.03,1.08,3.16.33,4.45-.09M215.2,122.26c-1.55,4.02,4.75,6.51,5.88,1.61-.66-3.92-4.58-4.96-5.88-1.61M212.12,131.26c1.88-4.22-2.21-7.62-5.26-4.61-1.55,4.07,2.11,6.71,5.26,4.61M218.88,129.15c-1.97-3.14-6.01-1.74-6.39,2.23.98,4.22,7.39,2.82,6.39-2.23M262.52,163.77c.67-.85,2.61-1.48,1.34-2.76,4.39-.77.28-6.17-2.74-3.75-1.55,2.67-2.35,5.19,1.39,6.51M279.19,139.72c-2.58-6.59-10.54,2.02-2.92,3.82,1.32-.56,2.21-2.01,2.92-3.82M280.16,139.25c-2.7,4.14,1.79,7.23,4.65,5.21,2.01-4.15-1.17-6.89-4.65-5.21M167.87,144.27c8.04,4.32,6.91-9.66.28-5.53-.46,2.03-.75,3.97-.28,5.53M291.42,145.11c.02.58.24,1.21.61,1.8l-3.79,10.26c-.22.08-.43.18-.65.3-.36-.82-.98-1.51-1.67-2.17-7.02.02-2.73,9.55,1.27,4.74l-2.62,7.11c1.67-6.43-6.12-6.4-5.36.72,2.57,2.51,4.35,1.62,5.13-.11l-1.3,3.54c-.54-.8-1.92-1.2-3.25-1.62-5,2.66-1.67,7.57,1.38,6.66l-.71,1.94c-3.14-4.2-6.8,1.36-4.99,5.19,1.15.53,2.11.64,2.9.46l-.49,1.35c-1.37-.96-3.25-.3-4.26,1.16l-1.81-.35c.01-2.73-3.12-5.26-5.49-1.73.13.22.2.46.24.72l-.83-.16c1.5-4.41-5.22-4.46-5.79-1.12l-.75-.15c.22-1.71.31-3.35-.77-4.42,4.71-2.86,4.7-9.3-1.63-6.99-.4,2.74-2,4.72-.29,6.73-1.39-.39-1.88,1.05-3.37.46-.84-.89-.78-2.22-2.75-2.55,1.13-.74,2.77-.45,3.98-1.05,2.34-4.57-2.09-8.38-4.78-4.85-1.62-.81-1.35-2.54-3.35-3.15,1.17-1.29,2.99-1.24,4.58-1.65,1.86,5.85,8.33,1.32,5.92-3.2-3.07-1.57-4.48.23-5.68,2.48.1-3.74-2.82-6.35-6.22-4.14-1.84-2.7-6.01-2.38-7.22-.05.76-1.87.45-3.22-1.05-3.98,2.95-1.41,5.78-6.05.79-8.17-1.64.12-2.8,1.21-3.51,3.22-.98-1.01-.02-2.99-.57-4.22-4.04-1.28-5.78-.18-8.64-2.96-1.5-.21-2.29,1.04-3.38,1.66-1.08-.77-1.29-1.96-1.78-3.02-6.49-2.69-5.54,10.75,1.39,6.51,1.76,1.72.77.05,1.67,2.18-.69.84-2.35-.3-2.78,1.06-.63-1.19-2.22-1.91-3.46-2.79-1.85.09-2.86,1.9-4,3.45-.91-4.02.16-6.28-5.26-4.61-1.7-.56-1.8-1.91-3.59-2.44,1.21-.79,2.83-.73,4.33-.93,4.27,7.2,10.16-3.69,3.65-4.79-1.77-.05-2.54,2.4-3.28,3.7-.07-2.23-.59-4.92-2.61-5.31-1.6-.2-2.17,1.69-3.74,1.53-1.17-7.37-11.28.14-4.12,3.82-1.37.48-3.29-.2-3.87,1.9-.12-1.64-.58-3.12-3.22-3.51,3.99,1.16,6.12-4.72,3.67-7.19-1.9-.4-3.63-.48-4.7.8-.88-3.25-6.27-4.68-6.98.43.49-3.12-3.66-7.62-5.99-3.66-1.27-8.05-12.02,1.41-3.76,3.94,1.41-.37,2.19-2.04,3.15-3.34-.46,3.9,2.74,6.58,6.46,4.62.23,1.81,2.94,3.02,4.79,2.44.47-1.49,1.4-2.04,1.72-3.84,1.27,1.38-.89,4.43.92,5.54-4.05,2.77-.45,10.86,3.09,5.07.76,1.12.32,2.84,1.53,3.74,1.51-.18,3.27.14,4.58-.44,1.53,2.36,5.49,3.35,6.73.29.34,1.23.08,2.76,1.18,3.62-1.48.23-1.82,2.8-2.92,3.83-1.79-1.11.99-2.82-.57-4.21-2.19-.8-4.12-1.08-5.29.2-.44-1.49-1.83-2.5-4.19-3.04-1.48.03-1.77,2.5-2.79,3.47.46-3.16-2.79-7.05-5.74-4.38-1.57-3.23-7.09-3.49-7.58,1.02-.97-1.43.18-3.89-.56-5.42,1.63-.12,2.03-2.51,2.67-3.11.64,1.29.24,3.08.93,4.34,2.42.65,4.47.56,5.9-.79-.47-1.47,0-3.4-.32-4.94-2.37-.42-3.92-1.81-5.77.43-1.66-7.3-11.2,1.4-4.61,4.05-1.56-.11-2.69.63-3.98,1.05-1.42-.81-1.06-2.48-3.47-2.79-2.61,1.36-2.14,5.91-1.38,7.57-1.64-.29-2.87.26-3.98,1.05-.43-1.39-2.07-2.18-2.38-3.63,3.42,2.2,4.95-4.38,3.54-6.83,2.68-1.85,4.37-6.47-.18-7.7-1.9-.22-1.98,3.28-3.87,3.1.39-1.89.41-3.6-1.29-4.45,1.36-.89,2.88-1.47,3.64-3.58.73,1.33.63,3.08,1.29,4.46,4.7,2.23,6.59-4.03,4.26-6.58,7.1-2.17-.25-12.42-3.1-3.88-2.16-2.02.87-4.33-2.12-5.55-2.84-1.15-6.07,3.95-3.06,6.59-1.16,1.1-2.42,2-3.28,3.7-.86-1.38-.26-3.47-1.65-4.58,3.5-.7,3.85-5.71,2.35-8.04,1.56.33,2.35-.92,3.38-1.66-.82-1.5.24-3.91-1.53-4.94,1.21-.79,2.69-1.03,3.39-2.86,1.21,1.21,1.69,2.77,1.65,4.59-6.98.94-.21,11.96,3.1,3.87.16,4.38,1.74,6.01,5.62,3.53,1.92-4.37-2.54-6.83-5.38-4.25-1.26-.88-1.24-2.39-2.5-3.27,1.25-.49,2.76-.48,3.74-1.53,1.72,6.77,10.73-.07,4.36-3.34-1.52.57-3.27.65-3.87,3.1.61-3.99-3.18-7.32-5.99-3.66-1.37-.93-1.41-2.5-2.86-3.39,1.23-.75,2.85-.71,4.1-1.41,1.96,2.73,4.62,4.96,6.38.17.99,1.31.89,3.16,2.14,4.35,1.63.28,3.14.31,3.97-1.05,1.26.97,1.55,2.15,3.23,3.51,9.62-2.08-1.4-12.51-2.27-2.78-1.54-1.34.7-4.54-1.28-5.66,1.37-1.08,2.76-2.11,3.29-4.91.33-1.46-2.04-1.6-1.79-3.02,1.34.48,2.26.12,3.02-.58,1.06,2.91,6.36,4.33,6.98-.43,1,1.31.15,3.52,1.65,4.58,1.63.48,3.1.62,4.09-.21,1.04.79,1.45,1.89,2.75,2.55-3.53-.36-4.71,4.48-2.7,6.72,1.55-.3,3.61.44,4.46-1.29,2.77,7.03,11.74-.25,5.07-3.09.79-1.46,2.92-.15,3.74-1.54.64.89.72,2.05,1.9,2.66-.99.62-2.2.8-3.02,1.78-.26,2.03-.55,4.07,1.53,4.94-3.8.57-5.49,6.69-1.39,7.57,3.1.66,6.85-5.53,1.14-6.85,1.56-.48,3.17-.86,4.82-1.16-.29,1.34,1.19,1.81,1.91,2.66,7.39,1.04,2.71-12.44-1.66-3.38-2.22-.61,1.35-4.05-1.29-4.46,2.52-1.86,5.12-6.39.3-7.94,1.2-.81,3.12-.14,4.1-1.41,1.53-2.26-.51-4.11-.2-5.29.3-1.12,2.96-1.58,2.68-4.31.85,1.58.14,3.92.92,5.54-.6.2-1.29.22-1.81.59-.38,1.89.21,1.94-.87,3.72.09,1.36,1.41,2.11,2.62,2.91-4.04-.77-5.86,4.38-3.18,6.95,7.09,1.38,2.29-7.29,6.2-8.73.03,1.48,1.9,2.06,1.53,3.74-6.83,1.13.73,12.57,2.98,4.23.94.94.6,2.5,1.66,3.38-1.57,3.74-4.22,1.96-2.46,7.2,5.74,3.1,7.25-5.1,3.66-5.99,1.68-2.13,3.63.72,5.88,1.61-.55.46-1.24.5-1.56-.14-.35.57.05.78.47.97-.8.59-.79-.55-1.92-.26-1.32,3.41.12,8.22,5.01,5.33.65-2.12-.08-3.55-.2-5.29,1.28-.25,1.73-2.17,2.67-3.11.53,1.44.49,3.16,1.29,4.46-7.37,1.47.53,12.41,3.09,3.88-1.15,7.23,9.81,4.83,5.67-1.28,2.53-1.91,4.74-5.38.06-7.22-1.18.45-2.19,1.22-3.14,2.14-.55-1.43-.64-3.08-1.29-4.46,1.98.79,1.97-2.5,3.15-3.35-1.33,2.76,2.5,6.92,5.02,4.13,1.77,1.92,6.35,5.46,7.22.05-.03,2.81,3.43,5.71,6.35,3.78,1.34.54.85,1.98,2.39,2.42-1.15.51-2.41.79-3.38,1.66-.88-1.07-1.85-2.09-2.98-3.03-1.76.09-3.33.53-3.88,3.1-.86-1.07.02-3-.57-4.21-2.15-.75-2.36-.46-4.57-.76-1.76,1.91-1.68,4.85-.53,6.25-.84,2.16-2.83,2.14-3.04,4.19-.32,3.14,4.38,5.13,6,1.25.6,6.66,9.98,2.21,5.32-2.61,1.06-.7,2.64-.32,3.15-2.14.43,1.19,1.3,2.16,1.66,3.39-5.3,3.26-1.94,8.62,2.24,6.39.33-.96.66-1.92.98-2.88-.43-.99-.33-2.23-1.9-2.66.92-.98,2.31-.99,3.62-1.17,1.69,2.64,6.08,3.59,6.98-.43-.78,3.4,2.93,5.75,5.63,3.53,1.68.78,1.93,2.25,2.38,3.63-1.36-.54-1.83.76-3.01.57-1.44-.69-1.74-1.94-3.1-2.67-1.71.39-3.18,1.25-4,3.46-1.27-1.86.5-3.64-1.17-4.82-6.72-3.23-6.75,9.36.68,5.06,1.01,2.29,5.94,4.8,6.74.29,1.11,1.15.06,3.37,1.77,4.22,1.45.11,2.95.32,3.85-.69,1.44.79,1.35,2.34,3.47,2.79-.97,1.09-3.18-.37-3.74,1.53-1.28-2.69-5.84-4.54-6.98.43-1.1-1.16-.16-3.31-.81-4.7-7.49-2.27-5.94,9.71.56,5.42,1.09,3.92,5.77,3.24,6.6-.03-.11,1.88.99,3.16,1.42,4.78-2.94.73-5.52,5.74-.77,6.97-1.53.33-3.14.53-4.7.8-4.25-7.04-10.04,5.85-1.84,4.2.54-.73.95-1.73,1.58-2.27.25,7.3,8.49,2.62,5.55-2.12.61-1.41,2.18-.84,2.55-2.74M202.38,84.84l.67,2.33c.44-1.01,1.55-1.67-.67-2.33M203.67,89.3l-.62-2.13c-.25.57-.29,1.26.62,2.13M219.67,89.22c1.92.81,3.05,2.15,5.28,2.21.98-3.43-4.45-1.96-5.28-2.21M296.79,133.98c-1.06-.32-.5-1.91-.93-2.71-1.59,2.11-3.55,3.25-1.01,5.29.27-.52.75-.83,1.33-.97l.6-1.61h.01ZM201.09,95.33c-.43,2.38-1.97,2.49-2.92,3.83,1.56.73.51,2.74,1.53,3.74.29-2.25,1.89-1.85,2.67-3.11-1.54-.94-.41-3.19-1.29-4.46M139.57,116.5c1.15-1.84,3.54-3.68,3.05-5.39-1.14.92-.49-1.52-1.43-1.69-.75,1.72-2.5,1.41-3.63,2.38,2.23.81,1.14,3.24,2.01,4.71M121.83,138.98c1.78.16,2.93-.94,4.22-1.77.09-2.51.12-5.31-3.45-5.2-2.03,1.37-2.88,5.81-.78,6.97M124.78,131.55c6.77,1.3,1.54-13.62-2.63-2.91,1.93.98.55,2.51,2.63,2.91M118.45,129.48c1.97.9,3.36-1.36,3.38-3.27l3.34-3.25c.08.26.17.52.28.77,2.04.49,3.84.5,4.82-1.17,1.23,1,.54,2.93,2.86,3.39-3.9.14-4.88,4.27-3.31,7.31,1.93.26,3.42-.36,4.82-1.17,1.47.88,1.18,2.62,2.86,3.39,2.15.11,3.57-1.27,4.24-4.18-.45-1.18-1.57-2.02-2.62-2.91-1.79,0-2.95,1.31-3.87,3.1-.26-1.98-1.02-3.69-1.76-5.42,1.88.37,2.81-1.2,3.75-2.74.3,1.75.95,3.33,2.01,4.71,1.64.3,2.7-.61,3.98-1.05,1.48.67.9,2.35,2.63,2.91-1.42.55-2.83,1.16-3.99,2.25-.22,3.78,1.8,5.9,5.39,4.25,1.46.58,1.12,2.05,2.26,2.79-5.73,5.43-4.05-5.38-10.11,1.36-1.19-4.78-.85-5.9-5.75-3.17-1.9-.66-1.43-2.49-2.86-3.39-7.9-.05-1.7,12.51,1.89,3.87,1.77.93.03,3.58,1.65,4.58,1.83.48,3.45.53,4.34-.93,1.68.88,1.43,2.7,3.22,3.51,2.1.41,2.55-2.54,4.47-2.49-1.05,1.92.68,2.46.69,3.85-1.17,1.06-2.46,1.9-3.28,3.7-.42-9.24-9.59-2.82-4.35,2.13,1.13-.34,2.69.19,3.26-1.29,1.16,1.03,1.55,2.43,2.86,3.39-1.48.46-2.82,1.19-3.99,2.26-2.01-4.81-4.47-3.6-7.33-.9,1.08-2.23.17-3.48-1.29-4.46,6.54-2.13,2.4-11.91-2.01-4.71-1.09-.86-.92-2.34-.69-3.85-1.58.29-.68-1.16-2.76-1.35-2.35.97-3.02,5.14-1.98,6.96-.9,1.6-2.38,2.05-3.51,3.22-1.55-4.23,4.41-9.06-.27-12.15-1.7-.02-2.5,1.83-3.75,2.74-2.3-3.41,3.05-7.21.93-10.94-.92-.03-1.58-.07-2.15,0l1.71-1.66h0ZM236.35,172.11c-1.44-.6.33-4.34-1.05-3.97-.09.94-1.44,2.31-3.28,3.7,1.59.92,1.02,2.89.81,4.7,1.85-.11,2.27-3.1,3.52-4.43M187.28,169.87c1.46-4.94,3.14-.72,4.83-2.43-4.38.46-2.54-3.72-3.82-4.12.38,1-1.8,2-2.55,2.75,1.14,1.01.66,2.37.42,3.6l1.11.21h.01ZM303.66,102.59c-3.2,2.01-2.17,3.32-1.5,6.72,1.15-1.12,2.38-2.08,3.52-3.22-1.26-.88-.55-2.73-2.02-3.51M258.42,84.79c-.07.08-.15.17-.22.24,3.55,5.64-5.05,9-6.16,2.72-.92,3.46-5.61,1.91-6.25-.53-1.52-.04-2.88.23-4.22.57,1.38.82,1.9,2.06,2.5,3.26-.6,2.45-1.58,4.12-2.93,5.03,1.44.99.74,3.03.81,4.7.83-1.76,1.74-3.38,3.04-4.19-1.48-1.17-.29-3.65-.56-5.42,2.64-3.17,7.3.23,6.35,3.78.67-2.31,2.24-2.76,3.87-3.1,1.47.67,2.01,1.81,2.62,2.91-.87,2.5-2.26,3.94-3.77,5.14,2.05.59.32,3.04,1.41,4.1.55-2.13,2.17-2.09,3.15-3.35-2.57-2.04-.5-7.41,2.58-7.56-4.12-2.18-.19-6.21,1.74-7.44-.29-.14-.52-.33-.68-.53l-3.31-.35.03.02ZM239.42,82.76c-.83,1.27-1.2,3.45-2.64,3.47.91.95.55,2.53,1.17,3.62.87-1.28,2.01-2,3.03-2.98-1.76-.65-.55-2.77-1.03-4.04l-.53-.06h0ZM291.69,110.56c1.47.98,1.82,2.5,2.25,3.99.69-1.66,1.86-2.33,3.27-2.51,1.59.72,2.34,1.85,3.47,2.8,1.08.17,1.16-1.7,2.65-.7-.29-1.26-.6-2.5-2.14-3.14-4.04,1.75-4.98.47-5.63-3.53-1.58,3.49-4.96,2.87-6.86.07-1.01.4-4-.04-3.61,1.17,1.35-.54,1.16,2.22,2.74,2.55,1.32-.15,2.08-1.46,3.86-.69M191.9,77.7c-.53,1.28-1.4,2.41-2.24,2.87,1.43.8.34,2.83,1.05,3.98.53-1.76,1.68-2.27,2.67-3.11-.48-.93-.8-2.28-.67-3.65l-.81-.08h0ZM233.73,105.69c.77-4.62,5.02-3.41,6.27-.67.78-1.47,4.38-.41,4.7-.81-1.97-.33-2.78-1.23-2.75-2.55-3.4,1.55-6.65-.28-6.7-3.9-.83.97-1.36,2.53-2.31,3.23.98,1.47.33,2.48-.87,3.72.92.15.56.92,1.67.97M165.56,100.47c.7-2.23,2.52-2.2,4.35-2.13,1.32.45,1.27,1.57,2.03,2.3,1.09-.84,2.55-.9,3.98-1.05-2.2-.42-1.7-2.16-2.98-3.03-1.21.99-2.79,1.24-4.93.33,0-1.4-.45-2.58-1.17-3.62-2.31,2.81-3,4.13-1.26,7.21M227.51,148.58c-1.16,1.11-1.42,4.03-2.8,4.67-.15,1.47,1.36,2.13.21,4.1.86-.29,1.79-2.43,3.15-3.35-1.51-1.16.31-3.95-.56-5.42M237.18,173.2c2.33.45,2.3,2.06,3.34,3.15.62-1.78,2.58-.83,3.74-1.54-4.18-1.32-.73-6.55,1.51-7.93-1.74-.84-.35-3.23-1.29-4.46-1.09,1.04-1.97,2.49-2.92,3.83,2.22,2.84-1.24,7.8-4.38,6.94M214.62,163.56c-.46.73-1.09,2.01-.94,2.91,1.87-1.05,2.12-2.02.94-2.91M103.77,143.7c.11.03.22.05.34.08.97-.68,2.42-.37,3.49-.81-.38-.71-.83-1.27-1.32-1.7l-2.52,2.44h.01ZM152.61,163.21c.49-.39.93-.77,1.05-1.76l-1.18,1.74.13.02h0Z"/>
</svg>