<svg xmlns="http://www.w3.org/2000/svg" viewBox="0 0 400 400">
  <defs>
    <style>
      .svgColor {
        fill: #fff;
      }
    </style>
  </defs>
  <path class="svgColor" d="M63.9,198.51c-3.02,0-5.48,2.46-5.48,5.48s2.51,5.59,5.48,5.59,5.59-2.56,5.59-5.59-2.56-5.48-5.59-5.48"/>
  <path class="svgColor" d="M131.68,260.16l-16.49-18.36,20.6-20.7-5.74-5.74-28.93,28.93v-49.62h-8.08v76.91h8.08v-15.7l8.23-8.23,16.32,17.98c3.42,3.77,6.31,5.95,10.9,5.95h8.05v-8.19h-8.05c-1.58,0-2.68-.72-4.89-3.22"/>
  <path class="svgColor" d="M199.97,244.6c0,10.88-8.42,19.74-18.78,19.74s-18.77-8.85-18.77-19.74,8.42-19.85,18.77-19.85,18.78,8.9,18.78,19.85M181.19,216.68c-14.87,0-26.96,12.53-26.96,27.93s12.1,27.93,26.96,27.93,26.96-12.53,26.96-27.93-12.1-27.93-26.96-27.93"/>
  <path class="svgColor" d="M341.67,244.6c0,10.88-8.42,19.74-18.78,19.74s-18.78-8.85-18.78-19.74,8.42-19.85,18.78-19.85,18.78,8.9,18.78,19.85M322.9,216.68c-14.87,0-26.96,12.53-26.96,27.93s12.1,27.93,26.96,27.93,26.97-12.53,26.97-27.93-12.1-27.93-26.97-27.93"/>
  <path class="svgColor" d="M58.27,217.64h-8.13v8.08h7.77c1.11,0,2.01.9,2.01,2.01v43.84h8.08v-44.2c0-5.36-4.36-9.73-9.73-9.73"/>
  <path class="svgColor" d="M277.62,261.49v-25.44c0-11.77-8.32-19.38-21.19-19.38-8.17,0-15.79,3.83-21.11,10.56l-.29-9.6h-7.48v53.93h8.08v-24.08c0-12.53,9.33-22.73,20.81-22.73,8.27,0,13.01,4.12,13.01,11.3v25.78c0,5.37,4.36,9.73,9.73,9.73h8.82v-8.08h-8.36c-1.1,0-1.99-.89-1.99-1.99"/>
  <polygon class="svgColor" points="216.77 302.81 232.5 302.81 232.5 306.81 226.83 306.81 226.83 324.2 222.46 324.2 222.46 306.81 216.77 306.81 216.77 302.81"/>
  <path class="svgColor" d="M197.71,311.93c1.87-.15,3.41-1.09,3.41-2.57,0-1.56-.62-2.29-2.42-2.52-1.3-.18-2.76-.23-4.27-.23v5.46c1.09,0,2.21-.03,3.28-.13M198.49,302.81c4.97.08,7.12,3.3,7.12,6.47,0,2.91-2.18,4.89-4.63,5.8,1.82,1.77,5.15,7.44,6.14,9.15h-4.89c-1.01-1.53-3.04-5.9-6.11-8.4-.6,0-1.2.03-1.69.03v8.35h-4.37v-21.37l8.42-.03Z"/>
  <path class="svgColor" d="M168.46,309.31l-2.68,6.55h5.38l-2.7-6.55ZM179.25,324.2h-4.71l-1.74-4.34h-8.66l-1.72,4.34h-4.73l8.97-21.4h3.61l8.97,21.4Z"/>
  <polygon class="svgColor" points="173.74 75.77 312.81 90.6 277.2 187.26 94.86 152.24 173.74 75.77"/>
</svg>