<?xml version="1.0" encoding="UTF-8"?>
<svg id="Calque_1" xmlns="http://www.w3.org/2000/svg" xmlns:xlink="http://www.w3.org/1999/xlink" version="1.1" viewBox="0 0 400 300">
  <!-- Generator: Adobe Illustrator 29.6.0, SVG Export Plug-In . SVG Version: 2.1.1 Build 207)  -->
  <defs>
    <style>
      .st0 {
        fill: #573f5a;
      }

      .st1 {
        fill: url(#Dégradé_sans_nom);
      }
    </style>
    <radialGradient id="Dégradé_sans_nom" data-name="Dégradé sans nom" cx="208.3" cy="-2.4" fx="176.3" fy="-2.4" r="86.5" gradientTransform="translate(0 77.2) scale(1 -.6)" gradientUnits="userSpaceOnUse">
      <stop offset="0" stop-color="#a182a0"/>
      <stop offset=".2" stop-color="#987a97"/>
      <stop offset=".5" stop-color="#816581"/>
      <stop offset=".9" stop-color="#5b435e"/>
      <stop offset="1" stop-color="#58405b"/>
    </radialGradient>
  </defs>
  <path d="M63.9,148.5c-3,0-5.5,2.5-5.5,5.5s2.5,5.6,5.5,5.6,5.6-2.6,5.6-5.6-2.6-5.5-5.6-5.5"/>
  <path d="M131.7,210.2l-16.5-18.4,20.6-20.7-5.7-5.7-28.9,28.9v-49.6h-8.1v76.9h8.1v-15.7l8.2-8.2,16.3,18c3.4,3.8,6.3,6,10.9,6h8.1v-8.2h-8.1c-1.6,0-2.7-.7-4.9-3.2"/>
  <path d="M200,194.6c0,10.9-8.4,19.7-18.8,19.7s-18.8-8.9-18.8-19.7,8.4-19.9,18.8-19.9,18.8,8.9,18.8,19.9M181.2,166.7c-14.9,0-27,12.5-27,27.9s12.1,27.9,27,27.9,27-12.5,27-27.9-12.1-27.9-27-27.9"/>
  <path d="M341.7,194.6c0,10.9-8.4,19.7-18.8,19.7s-18.8-8.9-18.8-19.7,8.4-19.9,18.8-19.9,18.8,8.9,18.8,19.9M322.9,166.7c-14.9,0-27,12.5-27,27.9s12.1,27.9,27,27.9,27-12.5,27-27.9-12.1-27.9-27-27.9"/>
  <path d="M58.3,167.6h-8.1v8.1h7.8c1.1,0,2,.9,2,2v43.8h8.1v-44.2c0-5.4-4.4-9.7-9.7-9.7"/>
  <path d="M277.6,211.5v-25.4c0-11.8-8.3-19.4-21.2-19.4s-15.8,3.8-21.1,10.6l-.3-9.6h-7.5v53.9h8.1v-24.1c0-12.5,9.3-22.7,20.8-22.7s13,4.1,13,11.3v25.8c0,5.4,4.4,9.7,9.7,9.7h8.8v-8.1h-8.4c-1.1,0-2-.9-2-2"/>
  <polygon class="st0" points="216.8 252.8 232.5 252.8 232.5 256.8 226.8 256.8 226.8 274.2 222.5 274.2 222.5 256.8 216.8 256.8 216.8 252.8"/>
  <path class="st0" d="M197.7,261.9c1.9-.1,3.4-1.1,3.4-2.6s-.6-2.3-2.4-2.5c-1.3-.2-2.8-.2-4.3-.2v5.5c1.1,0,2.2,0,3.3-.1M198.5,252.8c5,0,7.1,3.3,7.1,6.5s-2.2,4.9-4.6,5.8c1.8,1.8,5.1,7.4,6.1,9.1h-4.9c-1-1.5-3-5.9-6.1-8.4-.6,0-1.2,0-1.7,0v8.4h-4.4v-21.4h8.4s0,0,0,0Z"/>
  <path class="st0" d="M168.5,259.3l-2.7,6.5h5.4l-2.7-6.5h0ZM179.2,274.2h-4.7l-1.7-4.3h-8.7l-1.7,4.3h-4.7l9-21.4h3.6l9,21.4h0Z"/>
  <polygon class="st1" points="173.7 25.8 312.8 40.6 277.2 137.3 94.9 102.2 173.7 25.8"/>
  <path d="M302.1,47.6c2.7-1.3,3.8-.4,6.4,1.4-1,.5-2.5.1-3.3,1.3-1.8-.5-1.4-2.1-3.1-2.7M292.2,51.9c-1-1.1-.2-3.1-.9-4.3-.6,2.3-2.2,2.5-3.3,3.7,1,1.3.5,3.3,1.6,4.6.4-2.3,1.9-2.2,2.6-3.9M266.9,44.8c.3-1.1-1.6-2.2-1.9-3.9-.6,1.9-1.9,2.2-3,3,2.5,2.4.8,8.1-3,7.4,2.2.2,1.2,2,2.7,2.6,1.1-.4,2.3-.5,3-1.8-1.4-.3-1.4-1.3-1.7-2.2-.4-3.5,3.5-4,3.8-5.1M296.3,55.3c.9-.7,2.3-.3,2.9-1.4-1.8-.3-.8-2-2.9-2.2-.3,1.8-2.4,0-2.9,1.4,1.5-.2,2,1.3,2.9,2.2M268.4,57c.5-2.1,2.7-1.1,3.4-2.9-3.2-2-1.3-6.8,1.7-7.4-1.5-.5-.7-2.2-2.3-2.8-.8,1.3-2.5.7-3.4,1.7,3,1.6,1.1,6.9-1.5,7.9,1.2.9,1.1,2.4,2,3.5M211.9,29.8c.3,1.1,0,2.9.3,2.8.4-1.9,1.6-2,2.7-2.5l-3-.3h0ZM225.4,31.3c-.4.3-.7.6-1,1.1.6.9.4,2.2.9,3.1.4-1.5,1.9-1,2.4-2.4-.4-.5-.5-1.1-.8-1.7l-1.6-.2h0ZM216.7,30.3c.6,1.2,1.7,2,2.5,3.1.9-1.1,2.4-.9,3.4-1.7-.3-.3-.6-.7-.8-.9l-5.1-.5h0ZM232,36.2c1,0,1.4-1.1,2.9-.2,0-1.9-3.5-3.5-4.7-1.6,1.3.2.4,1.6,1.8,1.8M284.1,58c-1.6-1.2-.5-3.7-1.4-5.3-.9,2.2-2.5,3.1-3.6,4.8,1.6.7.8,2.6,2,3.5.5-2,2.2-1.7,3-3M278.2,56.4c-1.4-3.2-3.3-3.3-6.2-1.7,1.2,1,1.8,2.3,2.9,3.4,1-.9,2.2-1.2,3.4-1.7M229,44.8c1.2-.4,2.2-1.1,3.1-2.1-1.4-.7-.6-2.5-1.7-3.4-.3,1.2-.7,2.2-1.6,2.3-.4,1.3.9,1.8.1,3.2M247,47.7c1.2.7,1.3,1.9,2.3,2.8.2-1.8,2-.4,2.3-2-1.1-.3-1.1-1.2-1.8-1.8-.6,1-2.2,0-2.8,1.1M236.5,45.4c.8-.2,1.7-.3,2.1-1.3-.7-2-2.9-2-4-.2,1.2.2.4,1.4,1.9,1.5M290.9,74c-.8.2-1.7.2-2.1,1.3.6,2,2.9,2.1,4,.2-1.2-.2-.4-1.4-1.9-1.5M177.2,26.1l-.6.7c.2-.2.5-.4.8-.7h-.1s0,0,0,0ZM206.8,42.8c1.1,1.5.4,3.8,1.4,5.3.4-2.6,1.9-3.2,3.3-3.7-3.2-1.9-.8-6.9,2.1-7.3-1.7-2-3.8-2.3-6-1.2,4.4.4,2.1,7.1-.8,7M288.1,67.4c-.6-1.7-.5-3.7-.9-5.5.1,2.4-1.8,2.9-3,4.2.5,1.1.5,2.3,1.8,3,1.8-1.6,1.6-1.6.4-3.5,1.3.2.5,1.6,1.8,1.8M184.7,30.9c1-.6,2.3-.5,3.3-1.3-1.9-.4-1.3-1.9-2.8-2.5-.8,1.5-3,0-4,1.1,1.8.6,2.8,1.6,3.5,2.8M196.3,32.4c.2.2.3.4.1.8,1.2,1.2,4.2.8,4.1-.2-1.4.1-2.6-2.8-4.2-.6M299.2,77.4c-1.2-.7-3-.7-3.1,0,.9.1,1.4,1.7,2.3,2.1l.8-2.1h0ZM301.1,71c-.9-.7-2.7-1.4-3.8-1.4,1.1.6,1.4,2.1,3.8,1.4M172.4,27.2c.9-.2,1.6-.8,2.4-1.3h-.9c0,0-1.4,1.3-1.4,1.3ZM273,65.8c1.8-3.7,4.3-1.6,6.2.5,2.8-.3,3.4-2.3,1-4.1-2.6,2.5-6.8-.4-6-3.7-.7,1.9-2.1,2.3-2.9,3.8.9,1,.3,2.7,1.7,3.4M293,66.2c-.7,1.2-2.5.3-3,1.8,1.5.3.9,1.6,1.7,2.2,1.6.2,2.4-1.1,4-1.1-1.5-.7-1.3-2.2-2.6-2.9M182.2,40.5c.8-5,5.3-2.9,7.5-.7.8-.2,1.5-.5,2.3-.8-1.1-.6-1.1-1.7-2.5-2.1-3.7,1.9-5.8-2.3-5.5-5.1-.3,2.8-2,2.9-3,4.2,1.5.9.4,3.2,1.3,4.5M167.1,32.4c1.6.8,2.6,2.2,2.5,4.2.4-2.4,2.4-1.7,2.9-3.8-1.2-1.1-.9-2.9-1.3-4.4h0c-.4,1.9-1.4,2.5-2.6,2.5l-1.5,1.5h0ZM195.1,44.1c.9-1.2,1.5-3,2.8-3.5-1.1-.9-.8-2.4-1.2-3.6-2.7,2.7-2,3.6-1.6,7.1M231.9,50.6c-2.8-2-3.8-3.3-7-2,1,1.1,3.1,1.7,1.9,3.9.7.2.9,0,.6-.6.8-2.2,3.8-.5,4.5-1.3M202.9,39.9c-.8,1.4-2.8.4-3.7,1.5,2.4.2,1.6,2,3.1,2.7.8-1.1,2.3-.6,3-1.8-1.9-.2-1.4-1.7-2.4-2.4M174.9,36c1.4,0,2.5-.7,3.6-1.2-1-2.2-4.1-1.9-6-1.2,1.8.3,1.7,1.6,2.4,2.4M248.5,63.1c-1.5-2.3-3.5-3.8-5.6-1.1,1.5,3.2,2.8,2,5.6,1.1M254.6,65.2c1.6.4,2.4,1.2,2.9,2.2,1.3.3,2-.8,3.1-.9-1.4-2.2-4-2.3-6-1.2M177.3,42c-2-.8-1.2-3-2.1-4.3-.2,2.6-1.9,2.3-2.6,3.9,1.2.8.3,2.7,1.2,3.6.5-2.5,2.5-1.9,3.5-3.2M160.3,38.9c.2.6.5,1.2,1,1.7.2-1.8,1.9-.7,2.1-2.5-.5-.4-.5-1-.5-1.6,0,0-2.5,2.4-2.5,2.4ZM167.8,41.6c1-.4,2.1-.5,3.1-.9-1.2-.7-1.6-1.8-2.3-2.8-1.1.6-2.4.7-3.6,1.2,1.4.6,1.5,1.9,2.8,2.6M161.5,45.9c.2-2.5-3.3-3.5-4.7-1.6,1.1,1.9,2.7,1.9,4.7,1.6M294.4,90.6c-1-1.1-3-.9-4.2.4,1.5,1.2,2,2.3,3.3,2.1l.9-2.5h0ZM159.6,52.5c-.4-1.1-.7-2.3-1.3-3.3-.8.9-1.8,1.7-2.6,2.8,1.4.8,0,3,1.1,4,.2-2.6,2-2,2.8-3.5M148.7,50.1c.4.8,1.1,1.4,1.8,2,.8-.5,2-.4,2.5-1.5-.2-2.2-1.6-1.9-3.1-1.7l-1.3,1.2h0ZM148.3,61c.8-1.5,1.7-2.7,2.8-3.5-.9-.8-.5-2.2-1.4-2.9-.7,1.3-2.2.9-2.8,2.3,1.7.8.7,2.8,1.4,4.1M153,57.8c-.1,1.3.7,2,1.4,2.9,1.8.2,3.1-.5,4.7-.8-2.5-1.8-3.1-3.1-6.1-2.1M141.5,57.1c.1,0,.3,0,.4.1,1-.5,2.2-.4,2.9-1.4-.1-.5-.4-.9-.7-1.3l-2.6,2.6h0ZM151.4,66.1c.8,1.3.6,3.1,1.3,4.5,1.8-2.6,3.4-4.9,1.7-7.4-.9,1.2-2.2,1.5-3,3M146.8,66.6c1.1-.9,2.8-.3,3.7-1.5-2.6-2.3-3.1-2.6-6.2-1.7,0,1.5,1.3,2.4,2.5,3.3M151.2,76.1c1.1-.3,2.1-1.1,3-1.8-1.8-.4-1.2-2-2.3-2.8-4.1,2.2-4.7.1-6.6-3.1-.4,1.9-1.7,1.8-2.6,2.7.9.9,1.2,2.2.7,3.9,2.6-2.4,5.5-2.3,7.7,1M163.5,79.9c.8-1.4,2.6-.9,3.5-2-2-.4-1-2.3-2.6-2.9-.8,1.7-3,.3-3.9,1.9,2.2.4,1.8,2.1,3,3M130.1,68.2c.5,1.1.4,2.6.8,3.8.9-1.8,2-3.2,3.9-3.1,1.2,1,1.8,2.3,2.9,3.4,1-.8,2.4-.8,3.1-2.1-1.1-.6-.8-1.8-2-2.3-1.2.7-2.8.5-4.2.6-.9-.8-1.1-2-1.5-3l-2.9,2.8h0ZM198.6,95.9c1.4,1,.3,3.3,1.3,4.5,1.9-2.3,3.1-6.1,1.6-8.3-.3,2.6-2,2.4-2.9,3.8M232.6,107.2c.6-1.4,2.8.5,3.5-.8-2.5.3-1.5-2-3.5-2.8-1.4,1.5-2.4.7-4,1.1,1.3.6,3,1.1,3.9,2.6M152,82c-.6-1.4-1.3-2.8-2.2-4-.6,1.4-1.9,1.5-2.6,2.8.8,1.2.4,3,1.4,4.1.6-2.1,2.3-1.8,3.4-2.9M155.6,80.8c-.5,1.9-2.6.3-3.4,1.7,2,.5,1.7,2.2,3,3,1.2-.6,2.6-.8,3.7-1.5-1.8-.7-1.2-2.6-3.3-3.2M215.6,108.6c1.3,1.1.2,3.3.8,4.7,1.4-.7,1.5-3.9,3.3-3.7,6,1.1,2.9,6.7.3,8.5,1.6,1.1-.5,4.1.6,5.4.9-1.5,1.6-3.8,2.8-4.7-1-1.6.1-4.2.6-6.6.9-.6,2.3-.2,3.4-.5-1.6-.5-2.2-1.5-3.2-2.3-3.9.9-5.9-.4-5.1-5-.7,1.9-1.9,2.5-3.4,4.1M225.5,119.6c1.2.6,1.2,1.8,2.4,2.4.6-.9,1.5-1.4,3-.6.4-1.4-2.3-1.2-1.9-2.7,1.2-6.2,4.4-5.7,7.4-2.7.8-1.4,3.3.6,4.2-.6-2.6-.2-2.3-1.9-3.9-2.6-2.6,1.8-6.2-.5-5.1-3.8-2.9,2.9-1.7,5.4-3.3,9.7-.8.4-1.9.2-2.7.7M208,106.4c1.9.6,2.2,3.5,2.2,4,.7-2.7,3.1-1.8,4.6-2.9-2.8-1.7-4.3-2.3-6.9-1.1M159.3,94.6c1.7.2,2.5-1.4,4.3-.9.2-1.8-2.1-2.4-3.2-3.5-1.4.7-3,.9-4.7.8-.8-1.3-.6-3.1-1.3-4.5-.9,1.3-1.5,3-3,3,.3,1.6.5,3.2.8,4.7,1.3-1,2.3-2.6,4.1-2.6.9,1.1,1.3,2.4,3,3M248.6,121.5c-.3,2.6-2,2.4-2.9,3.8.9,1.2,0,3.4.8,4.7,1.1-1.2,2.1-2.6,3.3-3.7-1.6-1,.1-3.7-1.2-4.8M184.6,102.8c-1,1.4-1.6,3.5-3,4.2.9,1.2.3,3.1.4,4.6,1.2-3.8,5.6-4.4,7.5-.7,1.8-1.5,2.7-.9,5.6,0,0,1.3.3,2.5.3,3.7,2-2.2,3.3-5.2,1.9-7.8-1.2,5.2-5.4,2.8-6.9,0-1.3,0-1.9,1.5-3.3,1.3-4-.2-1.7-3.6-2.6-5.3M169.2,107.1l2.2-7.7c-1.1,3.2-3.6,4-2.2,7.7M159.1,96.5c-.4-.1-.7-.2-1.1-.4-.2,2.4-2,1.6-2.7,3.1.8,1.3.6,3.1,1.3,4.5.7-1.9,2.4-1.7,3.1-3.4-.5-1.1-.9-2.4-.7-3.9M205.6,113.5l-6-1.2c1.2.9,4.8,2.2,6,1.2M175.8,107.4c1.2-1.3,3.3-.5,4.8-1.2-2.8-2.6-3.9-2.7-7.3-2.1.4,1.3,1.2,2.4,2.5,3.3M148.2,97.6c1.3.7.9,2.1,2.3,2.8,1.2-1.1,2.9-1,4.2-1.8-2.2-2-4.2-3.8-6.5-1M110.9,86.8c.4.5.7,1.1,1.6,1.4,1.1-.4,2.3-.6,3.5-.8-1.3-.8-1.2-2.3-2.4-3.1l-2.7,2.6ZM175.6,108.2c-.6,1.9-1.2,3.7-2.6,3.9-.3,1.6,1.3,2.2.2,4.1,1.6-.3,2.2-2.4,3.7-2.7-2.6-1.4,0-3.5-1.4-5.3M159.5,108.3c1.5,1.3.7,3.6,1.4,5.3.9-1.4,1.9-2.6,2.9-3.8-.9-1.1-.3-3.1-.9-4.3-.7,1.9-2.6,1.2-3.4,2.9M146.9,105.2c1.5,1.1.8,3.2.7,5.1,1.3-1.3,2.1-3.5,3.5-4.4-1.1-1.2-.9-3-1.3-4.5-.8,1.6-1.8,2.8-2.9,3.8M178.1,113.8c1.1.6,1.6,1.6,2.9,2.2,1.1-1.1,3.3.7,3.7-.3-1-1-2.5-1.8-3.5-2.8-.5,1.4-2.1.5-3.1.9M151.5,106.8c2.4,2,3.9,2.5,6.4,1.4.3-4.1-4.4-2.8-6.4-1.4M164.9,110.1c.8,1,1.6,2,3.1,2.7,1-.6,2.4-.4,3.3-1.3-1.7-2.4-3.9-2-6.4-1.4M107.8,93.4c1.7.9.8,3.2,1.7,4.6,1.5-1.7,1.8-2.1,3.3-3.7-1.2-.9-.3-2.9-1.5-3.7-.8,1.7-1.9,2.6-3.4,2.9M126.1,98.9c1.7.7,1.2,2.4,3,3,1.4.1,1.6-2,3.5-.8-.5-3.8-3.9-4.1-6.5-2.2M117.2,97.8c.4-1.2,1.8-.3,2.2-1.7-.9-2.8-3.9-2.4-5.8-.8,1.1.9,1.6,2,3.6,2.4M142.3,111.2c-.5-1.1-.6-2.5-.2-4.1-.4-.1-.7-.2-1.1-.4-.8,1.8-2.3,2.1-3.2,3.6M114.8,105.9c4.3-4.4,3.7,4.1,8.4,0-.1-.9-1-1.5-1.2-2.4-2-1-2.2,1.5-4.2.6-1.8-1.4-1.9-3.7-2.5-5.7-1.7,2.5-2.9,4.8-2.6,7.1l2,.4h0ZM129.6,108.8c.4-.1.8-.2,1.2-.2.1.2.2.4.3.5l5.7,1.1c.1,0,.3-.2.4-.3-1.5-.9-1.4-2.5-3.3-3.1-3.6,2.8-4.5-.5-5.6-3.5-.7,1.9-2.1,2.3-2.9,3.8.1.3.2.6.3,1l4,.8h0ZM103.1,95.4c-1,1-1.3,3.4-2.8,3.5.4,1.4-.3,3.3.9,4.3.3-2.1,1.9-1.5,2.3-3.2-.8-1.2-.3-3.1-.4-4.6M148.3,112.4c-.4-.5-.8-.9-1-1.4-.8.2-1.4.6-2.1.8l3.2.6h0ZM108.3,99.2c-.7,1.7-2.8.4-3.5,2,1.1.7,2.2,1.3,2.9,2.2,1-.8,2.4-.8,3.6-1.2-1.9-.6-1-2.5-3-3M299.1,39.1c.5.4.9.8,1.1,1.4,1.7-.1,3-1.1,5.5.3-.3,1.6,1.5,2.3,0,4.4,1.6-.4,1.8-3.7,3.4-4.1-.2-.3-.4-.7-.4-1.1l-9.6-1h0ZM273.4,36.4c-5.8,3.1-1.9,1.6-1.5,6.6,1.4-4.3,6.4-2.5,6.5,1-1.3,1.7-2.6,3.3-4.7,3.2,2.1,1.1,2.5,3,2.7,4.9.9-1.9,2.4-2.6,4.1-2.6,1.1.8,1.3,2.2,2.6,2.9,1-1.2,2.5-1.4,3.9-1.9-2.2-.2-1.2-2-2.8-2.5-5.3,4.4-8.4-7.8-1.1-6,1,1.3,1.1,3.1,2.1,4.3,1-1.5,2.3-2.2,4-2.3,1.5.7,1.2,2.2,2.6,2.9,1.3-.8,2.4-2,4.7-.8,1.3.8.4,2.6,1.7,3.4.3-1.8,1.8-1.2,2.2-2.9-.9-1.1-.1-2.9-.6-4.2-1.1,4.3-5.8,3.4-7.3.3-.8,1.2-2.5.6-3.9.7-.3-1.7-2.4-2.4-1.2-4.8-1.3-.5-1.6,1.2-2.1,2.5-2.3,1.6-4.5-.4-6.1-2.1-2.3.7-3.9-.8-4.8-2.5h-1.1ZM265.9,35.6c-.8.5-1.6.8-2.8.3.8,1.4,1.4,2.9,3.6,3.6.5-1.3,1.7-.9,2.5-1.5-3.4-2.8,2-1.8-3.3-2.4h0ZM230.7,128.2l2.4.5c-.3-.2-.5-.5-.8-.7-.6,0-1.1.1-1.6.2M227.2,124.2c-.7-1.5-.2,3-3.2,2.7l3.5.7c-.5-.9-.3-2.2-.3-3.4M219.9,124.5c-3.4,1.8-6.9-1.8-5.5-5.1-1,1.4-1.7,3.4-3.3,3.7-5.6-2.8.7-9-1.1-12-2.4,2.8-1.5,11-7.6,9.4-1.7-1.1,0-3.8-1-5.2.4,4.7-5.4,4.2-7.2,1.1-.4.8-1.5.2-1.7,1.4,1.2,2.2,3.6.8,6.1,2.1.3.6.3,1.3.2,2.1l1.5.3c1.6-1.8,4.2-.9,5.6,1.1l1.8.3c1-.5,3.8-1.1,4.1.8l2.5.5c1.2-.5,2.8,0,3.4.7l5.3,1c-1.1-.4-2.2-1.3-3-2.2M239.6,126.8c-.3,1-.7,1.9-1,2.9l1.4.3c-.1-1.1,1.2-2.8-.4-3.2M252.2,132.3l1.2.2c-.1-.6-.3-1.2-.8-1.7,0,.6-.2,1.1-.4,1.4M277.6,109.7c7.4-1.9.6-10.2-2.2-5.2-1,1.8-.8,4.6,2.2,5.2M275.7,117.5c2.6.1,3.6-4,2.8-5.9-3.8-2.4-4.7,1-6.5,2.6,2.8-6.1-6.1-8.1-5.8-.8,2,2.6,2.9,2.7,6,1.2.1,1.5,2.4,2,2.9,3.4-2-.8-3,.4-4.3.9-1.7-6.2-10.2-.8-5.4,4.2-1.3-.1-2.2.4-2.9,1.4,0,1.7-.4,3.6.3,4.9,5.3,3.1,7.1-6.5,3.1-6.6,2.1.4,3.2-1.1,4.5-2.5.8,4.2,2.1,5.1,5.8,3.2,1.4-2.8.3-4.4-.3-6.1M271.9,132.2c1.5-.8,2.8-3.1,2.9-5-3.7-6.1-10,4.2-2.9,5M257.7,118.6c1.4,2.8,4.7,2.6,5.8.8,2.2-3.9-4.4-7.8-5.8-.8M253.5,109.5c2.2,3.9,7,2,6.2-2.7-2.1-3.1-5.9-1.9-6.2,2.7M252.4,102.3c2.2-.7,2.4-3.9,2-5.8-2.9-1.1-4.4.7-5.3,3.8.6.9,1.7,1.6,3.4,1.9M251.6,109.2c3.4-5.4-3.6-9.2-5.3-2.2.6,2.1,3.2,3,5.3,2.2M240.7,107.1c2.2,1.2,3.5.7,4.8,0,.9-2.8,1.2-3.5.6-5.4-2.1-1-3.3-.2-4.8,0-.8,2.1-1.2,4-.6,5.4M237.9,98.9c1.4-.1,2.8-.4,4.2-.6.6,1.6,2.3,2.1,3.5,2.8,1.2-.9,2.7-1.5,3.5-3.2-.7-2.1-1.9-4.1-4.8-3.6-.9.6-.9,3.1-2.2,2.9.5-1.8-1.1-2.7-.9-4.3-2.2-1.2-3.6-.8-4.8,0-.5-1.8-2.7-2.9-4.8-2.4-.9,1-1.7,2.2-2.2,4.1,1.3,3,5.2,3,6.7.3-.8,2.1.8,3,1.8,4.2M229,94.3c.2-2,.1-3.9-.6-5.4-7.5-2.8-4.9,10.2.6,5.4M223.4,89.5c.2-2.6-2.9-4.1-5.1-2.6-4.2,7.1,4.7,7.6,5.1,2.6M215.8,90.6c.9-1,.7-2.8,1.1-4.4-6.1-6.7-9.2,8.5-1.1,4.4M209.2,88.7c.4-1.1.7-2.2,1.1-3.2-4.7-9.5-9.8,6.4-1.1,3.2M203.4,86.7c.8-2.1.7-3.7.2-5.2-1.6-1.2-3.2-.8-5.2-.2-2.8,4.8,1.8,7.4,5,5.3M193.7,85.8c1.8.3,3.8-2.3,4-4.7-4.7-6.6-9.4,3.8-4,4.7M185.3,83.3c4.9,2.6,6.9-2.7,5.2-5.8-3.4-2.4-7.1,2.4-5.2,5.8M181.2,82.3c2.3-.1,3.8-3.8,3.3-6.1-3.5-2.6-4.9,0-6.8,2.1,2.4-7.4-8.8-5-5.2,1,2.4,1.4,3.5.2,5.2.2.7,1.1,1.4,2.3,3.5,2.8M180,67.1c-4.9-4.1-7.8,4.7-3.5,5.6,2.4.6,4.1-2.8,3.5-5.6M179.3,65.6c6.9.4-.5-13.5-3.1-2.7,1,1.3.9,2.6,3.1,2.7M185.6,74.2c2.5-4.6-.6-7.3-4.1-5.8-1.1,2.3-1,4.1-.3,5.5,1.9.9,2.9.2,4.3.3M187.9,61.7c-5-3.4-7,4.9-2.8,5.9,2.7-.2,4.1-3.6,2.8-5.9M180.8,46c-2,2.6,1.4,7.2,4.8,4.8,3.2-4.7-2.1-7.8-4.8-4.8M190.3,53.3c6.1-3.5-2.3-10.9-4-2.6.4,1.3,1.9,2.1,4,2.6M197.5,58.2c-1.7-5.5-8.6-.7-5.6,3.3,3.4,1.7,4.7.2,5.6-3.3M198.4,58.1c-.8,2.8-1.1,5,.8,5.9,5.7,2.8,6.1-10.8-.8-5.9M200.1,70.7c-.3-1.6,1-2,1.8-3-1.4-2.7-5.6-5-6.3.7.7,1.7,2.4,3.6,4.4,2.3M196.2,71.4c-1.4.5-2.2,2.5-2.8,4.7.7,2.1,4.7,3.1,6,1.2,3.1,7.9,11.6-3.9,3-4.2-1,.8-1.6,2.4-2.7,3.1-.5-1.2-.1-2.7-.7-3.8-1-.3-1.9-.7-2.9-1M186.1,59.9c2.8,1.5,7.1-4.4,2.7-5.5-4.2-1.1-5.1,4.2-2.7,5.5M191.3,69.3c4,.1,6.1-7.6.2-6.4-.7,1.7-2.3,1.4-2.6,3.9.7.8,1.2,1.8,2.4,2.4M192.6,75c.6-1.1-1.3-2.4.4-3.5-2.1-3-5.6-1.3-6.2,2.7,1.8,2.7,4.4,3.5,5.8.8M207.9,71.4c1.4-2.5-.5-6.1-4.4-4.7-4.2,4.7,2.2,8.7,4.4,4.7M211.4,75c8.5-2.3-2.4-11.2-2.9-3.4,0,1.3,1.4,2.2,2.9,3.4M213,61.1c-3.6.6-3.1,6.3,0,6.9,3.8.7,5.1-7.7,0-6.9M222,68.9c3.6-3.5-3.1-11.1-5-1.7.6,2.6,4,2.7,5,1.7M219.6,56.9c-1.2,2.6,0,4,.9,5.5,3.4.7,5.4-3.1,4-5.9-2.3-1.2-3.3.2-4.9.3M229.4,67.1c-1.3-6.6-11.8,2.4-2.3,4.4,1.3-1.1,2.7-2.4,2.3-4.4M235.9,69.3c-1.9-5.7-8.5-.4-5.2,3.4,3.6,1.4,4.2-.6,5.2-3.4M242,73.8c2.9-10.3-11.1-2.6-4.3.9,2,1,2.7,0,4.3-.9M248.2,71.1c-3.9-2.4-6.7,2.1-5.3,5,2.1,1.2,3.2.5,4.7.4.9-2.1,1.5-4.1.6-5.4M253.8,78.2c4.1-5.5-5.1-9-5-1.7,1.2.8,1.5,2.1,3.6,2.4.5-.2.6-1.3,1.4-.7M259.5,74.5c-3.8-.8-5,4.8-2.5,6,3,1.4,6-5.2,2.5-6M263.2,89.5c6-2.6-1.6-10.8-3.1-2.7.8,1,.8,2.4,3.1,2.7M265.5,82.6c6.9-3.2-3.8-10.8-3.6-2.4.9,1,1.5,2.1,3.6,2.4M273.6,83.8c3.5-5.6-4.7-8-5.4-1.9.5,2.1,3.7,3.4,5.4,1.9M271.3,95.1c-4,6,8.4,6.9,5.1-.7-2.4-.9-4.3-.4-5.1.7M270.1,102.3c-1.8,2.5-1,4.9,1.5,6.1,1.6-.6,2.7-2.3,3.3-4.9-1-2.2-2.8-1.5-4.8-1.2M266.4,89.4c1.4,1.1,1.6,1.9,3.7,2.1,6.3-4.6-3.8-10.3-3.7-2.1M264.1,96.2c1.5,3.7,6.1,2.6,6.4-1,.3-3.6-6.3-3.6-6.4,1M268.3,101.7c-3.8-6.5-10.3,4.8-2,4.6.9-1,1.4-2.9,2-4.6M259,104.1c6.5-4.2-3.9-11.1-2.9-1,1,.3,1.9.7,2.9,1M264,93c-.9-1.8-3.6-3.7-5.4-1.9-3.3,5.4,4.5,8,5.4,1.9M256.2,87.5c1.3-.5,2.4-1.6,3.1-3.3-.5-3.1-4.7-3.8-6.1-.9.2,1.8,1.3,3.2,3,4.2M252.5,89c-3.8,5.3,4.3,8.3,4.9,2.1-.7-1.8-2.9-3.2-4.9-2.1M249.1,85.9c7.6-.1,1-11.2-2.4-2.4,1,.7,1.1,1.9,2.4,2.4M245.3,87.8c-.3,1.4-.4,2.6-.5,3.9,6.3,6.2,8.2-8.6.5-3.9M242.9,84.1c3.3.8,5.2-5.8.9-6.1-4.4-.3-3.6,5.5-.9,6.1M244.2,87.4c-2.4-6.5-8.8,1.9-4.6,4.1,2.7,1.4,4.2-1.8,4.6-4.1M237.4,82.7c1.2-.9,2.6-1.6,2.8-3.5.6-7.6-12.5.8-2.8,3.5M233.3,82.9c-3.7,3.5.3,8.9,4.2,5.4.3-1.8.5-3.5,0-4.8-1.4-.3-2.9-.7-4.2-.6M232,83.2c-2.9-6-9.1,1.3-5.3,3.8,2.4,1.6,4.4-.6,5.3-3.8M230.9,80.4c7.6-4.5-3.6-10.6-3.4-1.9,1.5.5,1.3,1.8,3.4,1.9M224.5,79.1c1.4-.8,2.4-2.5,3.2-4.6-2.9-6.8-9.9,2.5-3.2,4.6M224.5,85.1c3.9-7.3-6.9-7.6-5.1-.5.2.2.7.3.6.6,2,1.1,3.2.3,4.4,0M215.2,72.3c-1.6,4,4.8,6.5,5.9,1.6-.7-3.9-4.6-5-5.9-1.6M212.1,81.3c1.9-4.2-2.2-7.6-5.3-4.6-1.6,4.1,2.1,6.7,5.3,4.6M218.9,79.1c-2-3.1-6-1.7-6.4,2.2,1,4.2,7.4,2.8,6.4-2.2M262.5,113.8c.7-.9,2.6-1.5,1.3-2.8,4.4-.8.3-6.2-2.7-3.8-1.5,2.7-2.4,5.2,1.4,6.5M279.2,89.7c-2.6-6.6-10.5,2-2.9,3.8,1.3-.6,2.2-2,2.9-3.8M280.2,89.2c-2.7,4.1,1.8,7.2,4.6,5.2,2-4.1-1.2-6.9-4.6-5.2M167.9,94.3c8,4.3,6.9-9.7.3-5.5-.5,2-.8,4-.3,5.5M291.4,95.1c0,.6.2,1.2.6,1.8l-3.8,10.3c-.2,0-.4.2-.6.3-.4-.8-1-1.5-1.7-2.2-7,0-2.7,9.6,1.3,4.7l-2.6,7.1c1.7-6.4-6.1-6.4-5.4.7,2.6,2.5,4.4,1.6,5.1-.1l-1.3,3.5c-.5-.8-1.9-1.2-3.2-1.6-5,2.7-1.7,7.6,1.4,6.7l-.7,1.9c-3.1-4.2-6.8,1.4-5,5.2,1.1.5,2.1.6,2.9.5l-.5,1.4c-1.4-1-3.2-.3-4.3,1.2l-1.8-.4c0-2.7-3.1-5.3-5.5-1.7.1.2.2.5.2.7l-.8-.2c1.5-4.4-5.2-4.5-5.8-1.1h-.8c.2-1.9.3-3.5-.8-4.6,4.7-2.9,4.7-9.3-1.6-7-.4,2.7-2,4.7-.3,6.7-1.4-.4-1.9,1.1-3.4.5-.8-.9-.8-2.2-2.8-2.6,1.1-.7,2.8-.4,4-1.1,2.3-4.6-2.1-8.4-4.8-4.9-1.6-.8-1.4-2.5-3.4-3.1,1.2-1.3,3-1.2,4.6-1.6,1.9,5.9,8.3,1.3,5.9-3.2-3.1-1.6-4.5.2-5.7,2.5.1-3.7-2.8-6.4-6.2-4.1-1.8-2.7-6-2.4-7.2,0,.8-1.9.4-3.2-1.1-4,2.9-1.4,5.8-6.1.8-8.2-1.6.1-2.8,1.2-3.5,3.2-1-1,0-3-.6-4.2-4-1.3-5.8-.2-8.6-3-1.5-.2-2.3,1-3.4,1.7-1.1-.8-1.3-2-1.8-3-6.5-2.7-5.5,10.8,1.4,6.5,1.8,1.7.8,0,1.7,2.2-.7.8-2.4-.3-2.8,1.1-.6-1.2-2.2-1.9-3.5-2.8-1.9,0-2.9,1.9-4,3.4-.9-4,.2-6.3-5.3-4.6-1.7-.6-1.8-1.9-3.6-2.4,1.2-.8,2.8-.7,4.3-.9,4.3,7.2,10.2-3.7,3.6-4.8-1.8,0-2.5,2.4-3.3,3.7,0-2.2-.6-4.9-2.6-5.3-1.6-.2-2.2,1.7-3.7,1.5-1.2-7.4-11.3.1-4.1,3.8-1.4.5-3.3-.2-3.9,1.9-.1-1.6-.6-3.1-3.2-3.5,4,1.2,6.1-4.7,3.7-7.2-1.9-.4-3.6-.5-4.7.8-.9-3.2-6.3-4.7-7,.4.5-3.1-3.7-7.6-6-3.7-1.3-8.1-12,1.4-3.8,3.9,1.4-.4,2.2-2,3.1-3.3-.5,3.9,2.7,6.6,6.5,4.6.2,1.8,2.9,3,4.8,2.4.5-1.5,1.4-2,1.7-3.8,1.3,1.4-.9,4.4.9,5.5-4.1,2.8-.4,10.9,3.1,5.1.8,1.1.3,2.8,1.5,3.7,1.5-.2,3.3.1,4.6-.4,1.5,2.4,5.5,3.4,6.7.3.3,1.2,0,2.8,1.2,3.6-1.5.2-1.8,2.8-2.9,3.8-1.8-1.1,1-2.8-.6-4.2-2.2-.8-4.1-1.1-5.3.2-.4-1.5-1.8-2.5-4.2-3-1.5,0-1.8,2.5-2.8,3.5.5-3.2-2.8-7.1-5.7-4.4-1.6-3.2-7.1-3.5-7.6,1-1-1.4.2-3.9-.6-5.4,1.6-.1,2-2.5,2.7-3.1.6,1.3.2,3.1.9,4.3,2.4.6,4.5.6,5.9-.8-.5-1.5,0-3.4-.3-4.9-2.4-.4-3.9-1.8-5.8.4-1.7-7.3-11.2,1.4-4.6,4.1-1.6-.1-2.7.6-4,1.1-1.4-.8-1.1-2.5-3.5-2.8-2.6,1.4-2.1,5.9-1.4,7.6-1.6-.3-2.9.3-4,1.1-.4-1.4-2.1-2.2-2.4-3.6,3.4,2.2,4.9-4.4,3.5-6.8,2.7-1.9,4.4-6.5-.2-7.7-1.9-.2-2,3.3-3.9,3.1.4-1.9.4-3.6-1.3-4.4,1.4-.9,2.9-1.5,3.6-3.6.7,1.3.6,3.1,1.3,4.5,4.7,2.2,6.6-4,4.3-6.6,7.1-2.2-.2-12.4-3.1-3.9-2.2-2,.9-4.3-2.1-5.6-2.8-1.2-6.1,3.9-3.1,6.6-1.2,1.1-2.4,2-3.3,3.7-.9-1.4-.3-3.5-1.6-4.6,3.5-.7,3.9-5.7,2.4-8,1.6.3,2.4-.9,3.4-1.7-.8-1.5.2-3.9-1.5-4.9,1.2-.8,2.7-1,3.4-2.9,1.2,1.2,1.7,2.8,1.6,4.6-7,.9-.2,12,3.1,3.9.2,4.4,1.7,6,5.6,3.5,1.9-4.4-2.5-6.8-5.4-4.2-1.3-.9-1.2-2.4-2.5-3.3,1.2-.5,2.8-.5,3.7-1.5,1.7,6.8,10.7,0,4.4-3.3-1.5.6-3.3.7-3.9,3.1.6-4-3.2-7.3-6-3.7-1.4-.9-1.4-2.5-2.9-3.4,1.2-.8,2.9-.7,4.1-1.4,2,2.7,4.6,5,6.4.2,1,1.3.9,3.2,2.1,4.3,1.6.3,3.1.3,4-1.1,1.3,1,1.6,2.2,3.2,3.5,9.6-2.1-1.4-12.5-2.3-2.8-1.5-1.3.7-4.5-1.3-5.7,1.4-1.1,2.8-2.1,3.3-4.9.3-1.5-2-1.6-1.8-3,1.3.5,2.3.1,3-.6,1.1,2.9,6.4,4.3,7-.4,1,1.3.1,3.5,1.6,4.6,1.6.5,3.1.6,4.1-.2,1,.8,1.4,1.9,2.8,2.6-3.5-.4-4.7,4.5-2.7,6.7,1.6-.3,3.6.4,4.5-1.3,2.8,7,11.7-.2,5.1-3.1.8-1.5,2.9-.2,3.7-1.5.6.9.7,2.1,1.9,2.7-1,.6-2.2.8-3,1.8-.3,2-.6,4.1,1.5,4.9-3.8.6-5.5,6.7-1.4,7.6,3.1.7,6.9-5.5,1.1-6.8,1.6-.5,3.2-.9,4.8-1.2-.3,1.3,1.2,1.8,1.9,2.7,7.4,1,2.7-12.4-1.7-3.4-2.2-.6,1.4-4.1-1.3-4.5,2.5-1.9,5.1-6.4.3-7.9,1.2-.8,3.1-.1,4.1-1.4,1.5-2.3-.5-4.1-.2-5.3.3-1.1,3-1.6,2.7-4.3.9,1.6.1,3.9.9,5.5-.6.2-1.3.2-1.8.6-.4,1.9.2,1.9-.9,3.7,0,1.4,1.4,2.1,2.6,2.9-4-.8-5.9,4.4-3.2,6.9,7.1,1.4,2.3-7.3,6.2-8.7,0,1.5,1.9,2.1,1.5,3.7-6.8,1.1.7,12.6,3,4.2.9.9.6,2.5,1.7,3.4-1.6,3.7-4.2,2-2.5,7.2,5.7,3.1,7.2-5.1,3.7-6,1.7-2.1,3.6.7,5.9,1.6-.6.5-1.2.5-1.6-.1-.4.6,0,.8.5,1-.8.6-.8-.6-1.9-.3-1.3,3.4.1,8.2,5,5.3.6-2.1,0-3.6-.2-5.3,1.3-.2,1.7-2.2,2.7-3.1.5,1.4.5,3.2,1.3,4.5-7.4,1.5.5,12.4,3.1,3.9-1.1,7.2,9.8,4.8,5.7-1.3,2.5-1.9,4.7-5.4,0-7.2-1.2.4-2.2,1.2-3.1,2.1-.6-1.4-.6-3.1-1.3-4.5,2,.8,2-2.5,3.1-3.3-1.3,2.8,2.5,6.9,5,4.1,1.8,1.9,6.4,5.5,7.2,0,0,2.8,3.4,5.7,6.4,3.8,1.3.5.9,2,2.4,2.4-1.1.5-2.4.8-3.4,1.7-.9-1.1-1.9-2.1-3-3-1.8,0-3.3.5-3.9,3.1-.9-1.1,0-3-.6-4.2-2.1-.8-2.4-.5-4.6-.8-1.8,1.9-1.7,4.8-.5,6.2-.8,2.2-2.8,2.1-3,4.2-.3,3.1,4.4,5.1,6,1.2.6,6.7,10,2.2,5.3-2.6,1.1-.7,2.6-.3,3.1-2.1.4,1.2,1.3,2.2,1.7,3.4-5.3,3.3-1.9,8.6,2.2,6.4.3-1,.7-1.9,1-2.9-.4-1-.3-2.2-1.9-2.7.9-1,2.3-1,3.6-1.2,1.7,2.6,6.1,3.6,7-.4-.8,3.4,2.9,5.8,5.6,3.5,1.7.8,1.9,2.2,2.4,3.6-1.4-.5-1.8.8-3,.6-1.4-.7-1.7-1.9-3.1-2.7-1.7.4-3.2,1.2-4,3.5-1.3-1.9.5-3.6-1.2-4.8-6.7-3.2-6.8,9.4.7,5.1,1,2.3,5.9,4.8,6.7.3,1.1,1.2,0,3.4,1.8,4.2,1.5.1,3,.3,3.9-.7,1.4.8,1.4,2.3,3.5,2.8-1,1.1-3.2-.4-3.7,1.5-1.3-2.7-5.8-4.5-7,.4-1.1-1.2-.2-3.3-.8-4.7-7.5-2.3-5.9,9.7.6,5.4,1.1,3.9,5.8,3.2,6.6,0-.1,1.9,1,3.2,1.4,4.8-2.9.7-5.5,5.7-.8,7-1.5.3-3.1.5-4.7.8-4.2-7-10,5.9-1.8,4.2.5-.7,1-1.7,1.6-2.3.2,7.3,8.5,2.6,5.5-2.1.6-1.4,2.2-.8,2.5-2.7M202.4,34.8l.7,2.3c.4-1,1.6-1.7-.7-2.3M203.7,39.3l-.6-2.1c-.2.6-.3,1.3.6,2.1M219.7,39.2c1.9.8,3.1,2.2,5.3,2.2,1-3.4-4.4-2-5.3-2.2M296.8,84c-1.1-.3-.5-1.9-.9-2.7-1.6,2.1-3.5,3.2-1,5.3.3-.5.8-.8,1.3-1l.6-1.6h0ZM201.1,45.3c-.4,2.4-2,2.5-2.9,3.8,1.6.7.5,2.7,1.5,3.7.3-2.2,1.9-1.8,2.7-3.1-1.5-.9-.4-3.2-1.3-4.5M139.6,66.5c1.1-1.8,3.5-3.7,3.1-5.4-1.1.9-.5-1.5-1.4-1.7-.8,1.7-2.5,1.4-3.6,2.4,2.2.8,1.1,3.2,2,4.7M121.8,89c1.8.2,2.9-.9,4.2-1.8,0-2.5.1-5.3-3.4-5.2-2,1.4-2.9,5.8-.8,7M124.8,81.6c6.8,1.3,1.5-13.6-2.6-2.9,1.9,1,.6,2.5,2.6,2.9M118.4,79.5c2,.9,3.4-1.4,3.4-3.3l3.3-3.2c0,.3.2.5.3.8,2,.5,3.8.5,4.8-1.2,1.2,1,.5,2.9,2.9,3.4-3.9.1-4.9,4.3-3.3,7.3,1.9.3,3.4-.4,4.8-1.2,1.5.9,1.2,2.6,2.9,3.4,2.1.1,3.6-1.3,4.2-4.2-.4-1.2-1.6-2-2.6-2.9-1.8,0-2.9,1.3-3.9,3.1-.3-2-1-3.7-1.8-5.4,1.9.4,2.8-1.2,3.8-2.7.3,1.8.9,3.3,2,4.7,1.6.3,2.7-.6,4-1.1,1.5.7.9,2.4,2.6,2.9-1.4.6-2.8,1.2-4,2.2-.2,3.8,1.8,5.9,5.4,4.2,1.5.6,1.1,2.1,2.3,2.8-5.7,5.4-4.1-5.4-10.1,1.4-1.2-4.8-.9-5.9-5.8-3.2-1.9-.7-1.4-2.5-2.9-3.4-7.9,0-1.7,12.5,1.9,3.9,1.8.9,0,3.6,1.6,4.6,1.8.5,3.4.5,4.3-.9,1.7.9,1.4,2.7,3.2,3.5,2.1.4,2.6-2.5,4.5-2.5-1.1,1.9.7,2.5.7,3.9-1.2,1.1-2.5,1.9-3.3,3.7-.4-9.2-9.6-2.8-4.4,2.1,1.1-.3,2.7.2,3.3-1.3,1.2,1,1.6,2.4,2.9,3.4-1.5.5-2.8,1.2-4,2.3-2-4.8-4.5-3.6-7.3-.9,1.1-2.2.2-3.5-1.3-4.5,6.5-2.1,2.4-11.9-2-4.7-1.1-.9-.9-2.3-.7-3.9-1.6.3-.7-1.2-2.8-1.4-2.3,1-3,5.1-2,7-.9,1.6-2.4,2.1-3.5,3.2-1.6-4.2,4.4-9.1-.3-12.1-1.7,0-2.5,1.8-3.8,2.7-2.3-3.4,3.1-7.2.9-10.9-.9,0-1.6,0-2.2,0l1.7-1.7h0ZM236.4,122.1c-1.4-.6.3-4.3-1.1-4,0,.9-1.4,2.3-3.3,3.7,1.6.9,1,2.9.8,4.7,1.9-.1,2.3-3.1,3.5-4.4M187.3,119.9c1.5-4.9,3.1-.7,4.8-2.4-4.4.5-2.5-3.7-3.8-4.1.4,1-1.8,2-2.6,2.8,1.1,1,.7,2.4.4,3.6l1.1.2h0ZM303.7,52.6c-3.2,2-2.2,3.3-1.5,6.7,1.1-1.1,2.4-2.1,3.5-3.2-1.3-.9-.5-2.7-2-3.5M258.4,34.8c0,0-.1.2-.2.2,3.5,5.6-5.1,9-6.2,2.7-.9,3.5-5.6,1.9-6.2-.5-1.5,0-2.9.2-4.2.6,1.4.8,1.9,2.1,2.5,3.3-.6,2.4-1.6,4.1-2.9,5,1.4,1,.7,3,.8,4.7.8-1.8,1.7-3.4,3-4.2-1.5-1.2-.3-3.7-.6-5.4,2.6-3.2,7.3.2,6.4,3.8.7-2.3,2.2-2.8,3.9-3.1,1.5.7,2,1.8,2.6,2.9-.9,2.5-2.3,3.9-3.8,5.1,2.1.6.3,3,1.4,4.1.6-2.1,2.2-2.1,3.2-3.3-2.6-2-.5-7.4,2.6-7.6-4.1-2.2-.2-6.2,1.7-7.4-.3-.1-.5-.3-.7-.5l-3.3-.3h0ZM239.4,32.8c-.8,1.3-1.2,3.4-2.6,3.5.9.9.6,2.5,1.2,3.6.9-1.3,2-2,3-3-1.8-.7-.6-2.8-1-4h-.5ZM291.7,60.6c1.5,1,1.8,2.5,2.2,4,.7-1.7,1.9-2.3,3.3-2.5,1.6.7,2.3,1.8,3.5,2.8,1.1.2,1.2-1.7,2.6-.7-.3-1.3-.6-2.5-2.1-3.1-4,1.8-5,.5-5.6-3.5-1.6,3.5-5,2.9-6.9,0-1,.4-4,0-3.6,1.2,1.4-.5,1.2,2.2,2.7,2.6,1.3-.2,2.1-1.5,3.9-.7M191.9,27.7c-.5,1.3-1.4,2.4-2.2,2.9,1.4.8.3,2.8,1.1,4,.5-1.8,1.7-2.3,2.7-3.1-.5-.9-.8-2.3-.7-3.7h-.8ZM233.7,55.7c.8-4.6,5-3.4,6.3-.7.8-1.5,4.4-.4,4.7-.8-2-.3-2.8-1.2-2.8-2.6-3.4,1.6-6.6-.3-6.7-3.9-.8,1-1.4,2.5-2.3,3.2,1,1.5.3,2.5-.9,3.7.9.2.6.9,1.7,1M165.6,50.5c.7-2.2,2.5-2.2,4.4-2.1,1.3.4,1.3,1.6,2,2.3,1.1-.8,2.6-.9,4-1.1-2.2-.4-1.7-2.2-3-3-1.2,1-2.8,1.2-4.9.3,0-1.4-.4-2.6-1.2-3.6-2.3,2.8-3,4.1-1.3,7.2M227.5,98.6c-1.2,1.1-1.4,4-2.8,4.7-.1,1.5,1.4,2.1.2,4.1.9-.3,1.8-2.4,3.1-3.4-1.5-1.2.3-3.9-.6-5.4M237.2,123.2c2.3.4,2.3,2.1,3.3,3.1.6-1.8,2.6-.8,3.7-1.5-4.2-1.3-.7-6.6,1.5-7.9-1.7-.8-.4-3.2-1.3-4.5-1.1,1-2,2.5-2.9,3.8,2.2,2.8-1.2,7.8-4.4,6.9M214.6,113.6c-.5.7-1.1,2-.9,2.9,1.9-1.1,2.1-2,.9-2.9M103.8,93.7c.1,0,.2,0,.3,0,1-.7,2.4-.4,3.5-.8-.4-.7-.8-1.3-1.3-1.7l-2.5,2.4h0ZM152.6,113.2c.5-.4.9-.8,1.1-1.8l-1.2,1.7h.1s0,0,0,0Z"/>
</svg>